<svg xmlns="http://www.w3.org/2000/svg" viewBox="0 0 100 100"><defs><style>.cls-1,.cls-2{fill:#fff;}.cls-2,.cls-3{stroke:#000;stroke-linejoin:round;stroke-width:4px;}.cls-2{stroke-linecap:square;}.cls-3{fill:none;stroke-linecap:round;}</style></defs><title>80x80_Day_separator</title><g id="Format"><rect class="cls-1" width="100" height="100"/></g><g id="Design"><polygon class="cls-2" points="28 75 72 75 73 68 80 58 73 48 71 37 60 35 50 28 40 35 29 37 27 48 20 58 27 68 28 75"/><line class="cls-3" x1="36" y1="49" x2="36" y2="56"/><line class="cls-3" x1="57" y1="49" x2="57" y2="56"/><polyline class="cls-3" points="36 65 46 68 57 65"/><line class="cls-3" x1="17" y1="75" x2="82" y2="75"/><line class="cls-3" x1="14" y1="58" x2="12" y2="58"/><line class="cls-3" x1="88" y1="58" x2="86" y2="58"/><line class="cls-3" x1="50" y1="22" x2="50" y2="16"/><line class="cls-3" x1="76" y1="32" x2="79" y2="29"/><line class="cls-3" x1="24" y1="32" x2="21" y2="29"/></g></svg>