<svg xmlns="http://www.w3.org/2000/svg" viewBox="0 0 100 100"><defs><style>.cls-1,.cls-2{fill:#fff;}.cls-2,.cls-3,.cls-4,.cls-5{stroke:#000;}.cls-2,.cls-3{stroke-linecap:round;stroke-linejoin:round;}.cls-2,.cls-3,.cls-5{stroke-width:3px;}.cls-3,.cls-4,.cls-5{fill:none;}.cls-4,.cls-5{stroke-miterlimit:10;}.cls-4{stroke-width:2px;}</style></defs><title>50x50_Travelapp_ship_and_ferry</title><g id="Format"><rect class="cls-1" width="100" height="100"/></g><g id="Design"><polygon class="cls-2" points="64.5 49.5 51.5 36.5 47.5 36.5 47.5 44.5 41 44.5 41 38.5 33.5 38.5 33.5 44.5 28.5 49.5 28.5 65.5 64.5 65.5 72.5 49.5 64.5 49.5"/><line class="cls-3" x1="34.5" y1="57.5" x2="34.5" y2="55.5"/><line class="cls-3" x1="40.5" y1="57.5" x2="40.5" y2="55.5"/><line class="cls-3" x1="46.5" y1="57.5" x2="46.5" y2="55.5"/><line class="cls-3" x1="52.5" y1="57.5" x2="52.5" y2="55.5"/><line class="cls-3" x1="58.5" y1="57.5" x2="58.5" y2="55.5"/><line class="cls-4" x1="48" y1="45" x2="59" y2="45"/><line class="cls-5" x1="28.5" y1="49.5" x2="64.5" y2="49.5"/><line class="cls-4" x1="34" y1="45" x2="41" y2="45"/><line class="cls-5" x1="73.5" y1="65.5" x2="64.5" y2="65.5"/><line class="cls-5" x1="28.5" y1="65.5" x2="25.5" y2="65.5"/></g></svg>