<svg xmlns="http://www.w3.org/2000/svg" viewBox="0 0 100 100"><defs><style>.cls-1,.cls-2,.cls-4{fill:#fff;}.cls-2,.cls-3,.cls-4{stroke:#000;stroke-linecap:round;stroke-linejoin:round;}.cls-2,.cls-3{stroke-width:3px;}.cls-3{fill:none;}.cls-4{stroke-width:4px;}</style></defs><title>80x80_Timer_and_stopwatch_stopwatch</title><g id="Format"><rect class="cls-1" width="100" height="100"/></g><g id="Design"><rect class="cls-2" x="66.05" y="37.17" width="9.9" height="5.66" transform="translate(-7.49 61.92) rotate(-45)"/><rect class="cls-2" x="71.76" y="28.64" width="8.49" height="12.73" transform="translate(-2.49 63.99) rotate(-45)"/><rect class="cls-2" x="25.17" y="35.05" width="5.66" height="9.9" transform="translate(-20.08 31.51) rotate(-45)"/><rect class="cls-2" x="16.64" y="30.76" width="12.73" height="8.49" transform="translate(-18.01 26.51) rotate(-45)"/><polygon class="cls-3" points="40.5 16.5 40.5 24.5 45.5 29.5 53.5 29.5 58.5 24.5 58.5 16.5 53.5 11.5 45.5 11.5 40.5 16.5"/><rect class="cls-2" x="46.5" y="24.5" width="6" height="10"/><polygon class="cls-4" points="23 51 23 72 39 88 60 88 76 72 76 51 60 35 39 35 23 51"/><line class="cls-3" x1="49.5" y1="43.5" x2="49.5" y2="69.5"/><line class="cls-3" x1="49.5" y1="35.5" x2="49.5" y2="38.5"/><line class="cls-3" x1="75.5" y1="60.5" x2="72.5" y2="60.5"/><line class="cls-3" x1="26.5" y1="60.5" x2="23.5" y2="60.5"/><line class="cls-3" x1="49.5" y1="84.5" x2="49.5" y2="87.5"/><polygon class="cls-2" points="47.52 55.5 44.52 58.5 44.52 62.5 47.52 65.5 51.52 65.5 54.52 62.5 54.52 58.5 51.52 55.5 47.52 55.5 47.52 55.5"/><line class="cls-3" x1="31.5" y1="43.5" x2="34.5" y2="46.5"/><line class="cls-3" x1="64.5" y1="46.5" x2="67.5" y2="43.5"/><line class="cls-3" x1="67.5" y1="79.5" x2="64.5" y2="76.5"/><line class="cls-3" x1="34.5" y1="76.5" x2="31.5" y2="79.5"/></g></svg>