<svg xmlns="http://www.w3.org/2000/svg" viewBox="0 0 100 100"><defs><style>.cls-1,.cls-2{fill:#fff;}.cls-2,.cls-3,.cls-4{stroke:#000;stroke-linecap:round;stroke-linejoin:round;}.cls-2,.cls-3{stroke-width:4px;}.cls-3,.cls-4{fill:none;}.cls-4{stroke-width:3px;}</style></defs><title>80x80_Mute-end</title><g id="Format"><rect class="cls-1" width="100" height="100"/></g><g id="Design"><polygon class="cls-2" points="52 54 65 63 65 54 52 54 52 54"/><polyline class="cls-2" points="82 34 87 29 87 21 78 13 67 13 63 21"/><polyline class="cls-2" points="41 36 44 26 71 19 82 30 82 45 75 52 65 52 52 52"/><polygon class="cls-2" points="61 39 69 32 75 38 75 62 61 48 61 39 61 39"/><polyline class="cls-3" points="65 52 65 64 65 79 55 85"/><polyline class="cls-2" points="37 50 31 44 31 36 41 36 52 47 52 56 42 56"/><polyline class="cls-2" points="32 86 44 49 38 44 27 86"/><line class="cls-4" x1="19.5" y1="77.5" x2="13.5" y2="77.5"/><line class="cls-4" x1="24.5" y1="67.5" x2="24.5" y2="64.5"/><line class="cls-4" x1="19.5" y1="71.5" x2="12.5" y2="64.5"/><polyline class="cls-3" points="75 62 75 80 67 85"/><line class="cls-3" x1="14" y1="86" x2="87" y2="86"/></g></svg>