<svg xmlns="http://www.w3.org/2000/svg" viewBox="0 0 100 100"><defs><style>.cls-1,.cls-2{fill:#fff;}.cls-2{stroke:#000;stroke-linecap:round;stroke-linejoin:round;stroke-width:3px;}</style></defs><title>50x50_WeChat</title><g id="Format"><rect class="cls-1" width="100" height="100"/></g><g id="Design"><polygon class="cls-2" points="27.5 37.5 27.5 49.5 31.5 53.5 31.5 61.5 35.5 57.5 49.5 57.5 57.5 49.5 57.5 37.5 51.5 31.5 33.5 31.5 27.5 37.5"/><polygon class="cls-2" points="46.5 51.5 46.5 59.5 52.5 65.5 66.5 65.5 70.5 69.5 70.5 61.5 72.5 59.5 72.5 51.5 66.5 45.5 52.5 45.5 46.5 51.5"/><line class="cls-2" x1="39.5" y1="41.5" x2="35.5" y2="41.5"/><line class="cls-2" x1="49.5" y1="41.5" x2="45.5" y2="41.5"/><line class="cls-2" x1="56.5" y1="53.5" x2="52.5" y2="53.5"/><line class="cls-2" x1="66.5" y1="53.5" x2="62.5" y2="53.5"/></g></svg>