<svg xmlns="http://www.w3.org/2000/svg" viewBox="0 0 100 100"><defs><style>.cls-1,.cls-2{fill:#fff;}.cls-2,.cls-3{stroke:#000;stroke-linecap:round;stroke-linejoin:round;}.cls-2{stroke-width:4px;}.cls-3{fill:none;stroke-width:3px;}</style></defs><title>80x80_Pay_bill</title><g id="Format"><rect class="cls-1" width="100" height="100"/></g><g id="Design"><polygon class="cls-2" points="45 60 27 55.5 17 30 17 30.01 45 37.01 49 56 45 60"/><line class="cls-3" x1="20.5" y1="38.5" x2="32.5" y2="41.51"/><polygon class="cls-2" points="79 73.99 50 73.99 20 73.99 20 46.99 79 46.99 79 73.99"/><polygon class="cls-3" points="42.5 57.49 42.5 63.49 46.5 67.49 52.5 67.49 56.5 63.49 56.5 57.49 52.5 53.49 46.5 53.49 42.5 57.49"/><polygon class="cls-2" points="55 60 73 55.5 83 30 83 30.01 55 37.01 51 56 55 60"/><line class="cls-3" x1="79.5" y1="38.5" x2="67.5" y2="41.51"/><line class="cls-3" x1="76.5" y1="46.5" x2="64.5" y2="49.51"/></g></svg>