<svg xmlns="http://www.w3.org/2000/svg" viewBox="0 0 100 100"><defs><style>.cls-1,.cls-2{fill:#fff;}.cls-2{stroke:#000;stroke-linecap:round;stroke-linejoin:round;stroke-width:2px;}</style></defs><title>25x25_Software_updating</title><g id="Format"><rect class="cls-1" width="100" height="100"/></g><g id="Design"><polygon class="cls-2" points="45.5 52.5 41.5 52.5 38.5 49.5 38.5 41.5 41.5 38.5 53.5 38.5 56.5 41.5 56.5 49.5 53.5 52.5 51.5 52.5 50.5 53.5 50.5 55.5 51.5 56.5 55.5 56.5 56.5 55.5 56.5 53.5 55.5 52.5 53.5 52.5 56.5 49.5 56.5 48.5 58.5 48.5 61.5 51.5 61.5 58.5 58.5 61.5 48.5 61.5 45.5 58.5 45.5 50.5 48.5 47.5 50.5 47.5 51.5 46.5 51.5 44.5 50.5 43.5 44.5 43.5 43.5 44.5 43.5 46.5 44.5 47.5 48.5 47.5 45.5 50.5 45.5 52.5"/></g></svg>