<svg xmlns="http://www.w3.org/2000/svg" viewBox="0 0 100 100"><defs><style>.cls-1,.cls-2{fill:#fff;}.cls-2{stroke:#000;stroke-linecap:round;stroke-linejoin:round;stroke-width:4px;}</style></defs><title>80x80_Kik</title><g id="Format"><rect class="cls-1" width="100" height="100"/></g><g id="Design"><polygon class="cls-2" points="13 63 17 67 21 63 21 58 22 57 30 66 35 66 35 61 27 52.5 33 46 33 41 28 41 22 48 21 47 21 36 17 32 13 36 13 63"/><polygon class="cls-2" points="54 63 58 67 62 63 62 58 63 57 71 66 76 66 76 61 68 52.5 74 46 74 41 69 41 63 48 62 47 62 36 58 32 54 36 54 63"/><path class="cls-2" d="M48,63V44s-4-4-4-4l-4,4V63l4,4S48,63,48,63Z"/><polygon class="cls-2" points="83 47 79 50 79 54 83 57 87 54 87 50 83 47"/></g></svg>