<svg xmlns="http://www.w3.org/2000/svg" viewBox="0 0 100 100"><defs><style>.cls-1,.cls-2{fill:#fff;}.cls-2,.cls-3{stroke:#000;stroke-linecap:round;stroke-linejoin:round;stroke-width:3px;}.cls-3{fill:none;}</style></defs><title>50x50_Uber_Car_taxi</title><g id="Format"><rect class="cls-1" width="100" height="100"/></g><g id="Design"><polygon class="cls-2" points="72.5 57.5 26.5 57.5 26.5 43.5 30.5 43.5 38.5 37.5 54.5 37.5 60.5 43.5 72.5 49.5 72.5 57.5"/><polygon class="cls-2" points="54.5 55.5 54.5 59.5 58.5 63.5 62.5 63.5 66.5 59.5 66.5 55.5 62.5 51.5 58.5 51.5 54.5 55.5"/><polygon class="cls-2" points="32.5 55.5 32.5 59.5 36.5 63.5 40.5 63.5 44.5 59.5 44.5 55.5 40.5 51.5 36.5 51.5 32.5 55.5"/><line class="cls-3" x1="50.5" y1="37.5" x2="50.5" y2="33.5"/></g></svg>