<svg xmlns="http://www.w3.org/2000/svg" viewBox="0 0 100 100"><defs><style>.cls-1,.cls-2{fill:#fff;}.cls-2,.cls-3,.cls-4{stroke:#000;stroke-linecap:round;stroke-linejoin:round;}.cls-2,.cls-4{stroke-width:3px;}.cls-3,.cls-4{fill:none;}.cls-3{stroke-width:2px;}</style></defs><title>50x50_Eventbrite_government_and_politics</title><g id="Format"><rect class="cls-1" width="100" height="100"/></g><g id="Design"><polygon class="cls-2" points="61.5 58.5 61.5 50.5 59.5 50.5 59.5 42.5 57.5 42.5 57.5 38.5 53.5 34.5 46.5 34.5 42.5 38.5 42.5 42.5 40.5 42.5 40.5 50.5 38.5 50.5 38.5 58.5 28.5 58.5 28.5 72.5 71.5 72.5 71.5 58.5 61.5 58.5"/><line class="cls-3" x1="50" y1="34" x2="50" y2="26"/><line class="cls-3" x1="57" y1="59" x2="57" y2="72"/><line class="cls-3" x1="50" y1="59" x2="50" y2="72"/><line class="cls-3" x1="43" y1="59" x2="43" y2="72"/><line class="cls-3" x1="43" y1="43" x2="57" y2="43"/><line class="cls-3" x1="41" y1="51" x2="59" y2="51"/><line class="cls-3" x1="38" y1="59" x2="62" y2="59"/><line class="cls-4" x1="36.5" y1="64.5" x2="34.5" y2="64.5"/><line class="cls-4" x1="63.5" y1="64.5" x2="65.5" y2="64.5"/></g></svg>