<svg xmlns="http://www.w3.org/2000/svg" viewBox="0 0 100 100"><defs><style>.cls-1,.cls-2,.cls-3{fill:#fff;}.cls-2,.cls-3,.cls-4{stroke:#000;stroke-linecap:round;stroke-linejoin:round;}.cls-2,.cls-4{stroke-width:2px;}.cls-3{stroke-width:3px;}.cls-4{fill:none;}</style></defs><title>50x50_Pay_bill</title><g id="Format"><rect class="cls-1" width="100" height="100"/></g><g id="Design"><polyline class="cls-2" points="31 35 35 51 47 54 50 51 47 39 31 35"/><line class="cls-2" x1="41" y1="43" x2="33" y2="41"/><rect class="cls-3" x="32.5" y="48.5" width="36" height="17"/><polygon class="cls-4" points="46 55 46 59 48 61 52 61 54 59 54 55 52 53 48 53 46 55"/><polyline class="cls-2" points="71 35 67 51 55 54 52 51 55 39 71 35"/><line class="cls-2" x1="61" y1="43" x2="69" y2="41"/><line class="cls-2" x1="59" y1="48" x2="67" y2="46"/></g></svg>