<svg xmlns="http://www.w3.org/2000/svg" viewBox="0 0 100 100"><defs><style>.cls-1,.cls-2{fill:#fff;}.cls-2,.cls-3{stroke:#000;stroke-linecap:round;stroke-linejoin:round;}.cls-2{stroke-width:4px;}.cls-3{fill:none;stroke-width:3px;}</style></defs><title>80x80_Snooze</title><g id="Format"><rect class="cls-1" width="100" height="100"/></g><g id="Design"><polygon class="cls-2" points="19 39 19 23 27 31 33 25 52 25 58 31 66 23 66 39 66 67.18 52 81 33 81 19 67 19 39"/><line class="cls-3" x1="11.83" y1="81.5" x2="88.5" y2="81.5"/><polyline class="cls-3" points="73.5 25.5 81.5 25.5 73.5 33.5 81.5 33.5"/><polyline class="cls-3" points="80.5 11.5 88.5 11.5 80.5 19.5 88.5 19.5"/><polyline class="cls-2" points="38 43 34 47 29 47 26 44"/><polyline class="cls-2" points="48 43 52 47 57 47 60 44"/><polyline class="cls-3" points="65.5 39.5 57.5 31.5 42.5 46.5 27.5 31.5 19.5 39.5"/><line class="cls-3" x1="71.5" y1="81.5" x2="78.5" y2="88.5"/><line class="cls-3" x1="85.5" y1="74.5" x2="78.5" y2="81.5"/><line class="cls-3" x1="70.5" y1="81.5" x2="70.5" y2="88.5"/><polyline class="cls-3" points="19.5 50.5 28.5 59.5 28.5 76.5"/><polyline class="cls-3" points="65.5 50.5 56.5 59.5 56.5 76.5"/></g></svg>