<svg xmlns="http://www.w3.org/2000/svg" viewBox="0 0 100 100"><defs><style>.cls-1,.cls-2{fill:#fff;}.cls-2,.cls-3,.cls-4{stroke:#000;stroke-linecap:round;stroke-linejoin:round;}.cls-2,.cls-3{stroke-width:4px;}.cls-3,.cls-4{fill:none;}.cls-4{stroke-width:3px;}</style></defs><title>80x80_Fitnessapp_lets_get_moving</title><g id="Format"><rect class="cls-1" width="100" height="100"/></g><g id="Design"><polygon class="cls-2" points="48 70 48 77 32 82 32 75 42 72 42 64 48 70"/><polygon class="cls-2" points="59 70 48 70 38 60 38 45 51 32 66 32 71 37 71 44 59 56 66 56 66 80 59 73 59 70"/><line class="cls-3" x1="59" y1="70" x2="59" y2="64"/><line class="cls-3" x1="59" y1="56" x2="50" y2="56"/><polyline class="cls-2" points="54 39 38 55 33 55 33 50 51 32"/><polygon class="cls-2" points="32 82 37 87 31 87 26 82 26 77 32 75 32 82"/><polygon class="cls-2" points="69 74 73 78 73 80 59 80 59 74 69 74"/><line class="cls-4" x1="11.5" y1="88.5" x2="78.5" y2="88.5"/><polygon class="cls-2" points="66 32 66 23 71 18 80 18 85 23 85 32 80 37 71 37 66 32"/></g></svg>