<svg xmlns="http://www.w3.org/2000/svg" viewBox="0 0 100 100"><defs><style>.cls-1,.cls-2{fill:#fff;}.cls-2{stroke:#000;stroke-linecap:round;stroke-linejoin:round;stroke-width:4px;}</style></defs><title>80x80_Eventbrite_community_and_culture</title><g id="Format"><rect class="cls-1" width="100" height="100"/></g><g id="Design"><polygon class="cls-2" points="33 43 26 50 26 78 46 78 46 50 61 50 61 43 33 43"/><polygon class="cls-2" points="28 25 28 31 33 36 39 36 44 31 44 25 39 20 33 20 28 25"/><polygon class="cls-2" points="56 25 56 31 61 36 67 36 72 31 72 25 67 20 61 20 56 25"/><polygon class="cls-2" points="60 43 53 50 53 78 74 78 74 50 67 43 60 43"/></g></svg>