<svg xmlns="http://www.w3.org/2000/svg" viewBox="0 0 100 100"><defs><style>.cls-1,.cls-2{fill:#fff;}.cls-2{stroke:#000;stroke-miterlimit:10;stroke-width:4px;}</style></defs><title>80x80_Skype</title><g id="Format"><rect class="cls-1" width="100" height="100"/></g><g id="Design"><polygon class="cls-2" points="76 61 76 37 62 23 40 23 36 19 26 19 20 25 20 35 24 39 24 63 38 77 60 77 64 81 74 81 80 75 80 65 76 61"/><polyline class="cls-2" points="37 60 42 65 57 65 62 60 62 55 57 50 43 50 38 45 38 40 43 35 57 35 62 40"/></g></svg>