<svg xmlns="http://www.w3.org/2000/svg" viewBox="0 0 100 100"><defs><style>.cls-1,.cls-2{fill:#fff;}.cls-2,.cls-3,.cls-4{stroke:#000;stroke-miterlimit:10;}.cls-2,.cls-3{stroke-width:4px;}.cls-3{fill:#f3f3f3;}.cls-4{fill:none;stroke-width:3px;}</style></defs><title>80x80_iOS_photos</title><g id="Format"><rect class="cls-1" width="100" height="100"/></g><g id="Design"><polygon class="cls-2" points="74 40 74 32 68 26 60 26 54 20 46 20 40 26 32 26 26 32 26 40 20 46 20 54 26 60 26 68 32 74 40 74 46 80 54 80 60 74 68 74 74 68 74 60 80 54 80 46 74 40"/><polygon class="cls-3" points="55 52 52 55 48 55 45 52 45 48 48 45 52 45 55 48 55 52"/><line class="cls-4" x1="47.5" y1="43.5" x2="40.5" y2="27.5"/><line class="cls-4" x1="52.5" y1="43.5" x2="59.5" y2="27.5"/><line class="cls-4" x1="56.5" y1="47.5" x2="72.5" y2="40.5"/><line class="cls-4" x1="56.5" y1="52.5" x2="72.5" y2="59.5"/><line class="cls-4" x1="52.5" y1="56.5" x2="59.5" y2="72.5"/><line class="cls-4" x1="47.5" y1="56.5" x2="40.5" y2="72.5"/><line class="cls-4" x1="43.5" y1="52.5" x2="27.5" y2="59.5"/><line class="cls-4" x1="43.5" y1="47.5" x2="27.5" y2="40.5"/></g></svg>