<svg xmlns="http://www.w3.org/2000/svg" viewBox="0 0 100 100"><defs><style>.cls-1,.cls-2,.cls-5{fill:#fff;}.cls-2,.cls-3,.cls-4,.cls-5{stroke:#000;stroke-linecap:round;stroke-linejoin:round;}.cls-2,.cls-4{stroke-width:4px;}.cls-3,.cls-4{fill:none;}.cls-3,.cls-5{stroke-width:3px;}</style></defs><title>80x80_Uber_Requesting_ride</title><g id="Format"><rect class="cls-1" width="100" height="100"/></g><g id="Design"><polygon class="cls-2" points="61 64 48 78 26 78 13 64 13 36 26 23 48 23 61 36 61 64"/><polyline class="cls-3" points="27.5 64.5 30.5 67.5 38.5 67.5 41.5 64.5"/><polyline class="cls-3" points="41.5 52.5 38.5 49.5 30.5 49.5 27.5 52.5"/><line class="cls-4" x1="35" y1="39" x2="35" y2="47"/><line class="cls-4" x1="46" y1="39" x2="46" y2="47"/><line class="cls-4" x1="52" y1="54" x2="52" y2="59"/><polyline class="cls-5" points="81.5 55.5 77.5 59.5 73.5 55.5 77.5 51.5 81.5 55.5"/><line class="cls-3" x1="68.5" y1="60.5" x2="75.5" y2="67.5"/><line class="cls-3" x1="75.5" y1="44.5" x2="68.5" y2="51.5"/><polyline class="cls-3" points="88.5 42.5 81.5 37.5 81.5 55.5"/></g></svg>