<svg xmlns="http://www.w3.org/2000/svg" viewBox="0 0 100 100"><defs><style>.cls-1,.cls-2{fill:#fff;}.cls-2,.cls-3{stroke:#000;stroke-linecap:round;stroke-linejoin:round;}.cls-2{stroke-width:4px;}.cls-3{fill:none;stroke-width:3px;}</style></defs><title>80x80_Sunny day</title><g id="Format"><rect class="cls-1" width="100" height="100"/></g><g id="Design"><polygon class="cls-2" points="44 28 36 36 36 47 44 55 55 55 63 47 63 36 55 28 44 28 44 28"/><line class="cls-3" x1="49.5" y1="15.5" x2="49.5" y2="21.5"/><line class="cls-3" x1="49.5" y1="69.5" x2="49.5" y2="62.5"/><line class="cls-3" x1="49.5" y1="86.5" x2="49.5" y2="77.5"/><line class="cls-3" x1="82.5" y1="74.5" x2="64.5" y2="56.5"/><line class="cls-3" x1="37" y1="73.5" x2="70" y2="73.5"/><line class="cls-3" x1="68.5" y1="21.5" x2="63.5" y2="26.5"/><line class="cls-3" x1="69.5" y1="36.5" x2="81.5" y2="33.5"/><line class="cls-3" x1="81.5" y1="49.5" x2="69.5" y2="46.5"/><line class="cls-3" x1="30.5" y1="60.5" x2="34.5" y2="56.5"/><line class="cls-3" x1="16.5" y1="74.5" x2="22.5" y2="68.5"/><line class="cls-3" x1="30.5" y1="21.5" x2="35.5" y2="26.5"/><line class="cls-3" x1="29.5" y1="36.5" x2="17.5" y2="33.5"/><line class="cls-3" x1="17.5" y1="49.5" x2="29.5" y2="46.5"/><line class="cls-3" x1="12.5" y1="64.5" x2="42.5" y2="64.5"/></g></svg>