<svg xmlns="http://www.w3.org/2000/svg" viewBox="0 0 100 100"><defs><style>.cls-1,.cls-2{fill:#fff;}.cls-2,.cls-3,.cls-4{stroke:#000;stroke-linecap:round;stroke-linejoin:round;}.cls-2,.cls-4{stroke-width:4px;}.cls-3,.cls-4{fill:none;}.cls-3{stroke-width:3px;}</style></defs><title>80x80_Fitnessapp_time_for_bed</title><g id="Format"><rect class="cls-1" width="100" height="100"/></g><g id="Design"><polygon class="cls-2" points="17 37 36 18 56 18 62 24 50 24 41 33 41 47 53 47 53 59 58 64 77 64 59 82 38 82 17 61 17 37"/><polyline class="cls-3" points="27.5 49.5 31.5 45.5 35.5 49.5"/><line class="cls-3" x1="40.5" y1="37.5" x2="17.5" y2="37.5"/><line class="cls-4" x1="62" y1="24" x2="65" y2="27"/><polygon class="cls-2" points="60 38 60 32 64 28 70 28 74 32 74 38 70 42 64 42 60 38"/><polyline class="cls-3" points="56.5 62.5 50.5 68.5 44.5 68.5"/><line class="cls-4" x1="71" y1="53" x2="71" y2="53"/><line class="cls-4" x1="82" y1="43" x2="82" y2="43"/><line class="cls-4" x1="85" y1="60" x2="85" y2="60"/><line class="cls-4" x1="76" y1="14" x2="76" y2="14"/><line class="cls-4" x1="16" y1="76" x2="16" y2="76"/><line class="cls-4" x1="27" y1="88" x2="27" y2="88"/></g></svg>