<svg xmlns="http://www.w3.org/2000/svg" viewBox="0 0 100 100"><defs><style>.cls-1,.cls-2{fill:#fff;}.cls-2,.cls-3,.cls-4{stroke:#000;stroke-linecap:round;stroke-linejoin:round;}.cls-2,.cls-3{stroke-width:4px;}.cls-3,.cls-4{fill:none;}.cls-4{stroke-width:3px;}</style></defs><title>80x80_Quiet_mode</title><g id="Format"><rect class="cls-1" width="100" height="100"/></g><g id="Design"><polygon class="cls-2" points="48 67 48 74 32 79 32 72 42 69 42 61 48 67"/><polygon class="cls-2" points="59 67 48 67 38 57 38 42 52 28 48 24 48 13 59 13 87 41 71 41 59 53 66 53 66 77 59 70 59 67"/><line class="cls-3" x1="66" y1="30" x2="66" y2="30"/><polyline class="cls-4" points="37.5 57.5 27.5 57.5 19.5 49.5 19.5 34.5 12.5 27.5"/><polyline class="cls-4" points="52.5 28.5 54.5 30.5 58.5 30.5"/><line class="cls-3" x1="59" y1="67" x2="59" y2="61"/><line class="cls-3" x1="59" y1="53" x2="50" y2="53"/><line class="cls-3" x1="66" y1="77" x2="69" y2="80"/><polyline class="cls-2" points="75 53 67 45 58 45 58 39"/><line class="cls-3" x1="32" y1="79" x2="32" y2="84"/><line class="cls-4" x1="54.5" y1="19.5" x2="57.5" y2="22.5"/><line class="cls-3" x1="83" y1="37" x2="79" y2="41"/><line class="cls-4" x1="11.5" y1="88.5" x2="73.5" y2="88.5"/></g></svg>