<svg xmlns="http://www.w3.org/2000/svg" viewBox="0 0 100 100"><defs><style>.cls-1,.cls-2,.cls-3{fill:#fff;}.cls-2,.cls-3,.cls-4{stroke:#000;stroke-linecap:round;stroke-linejoin:round;}.cls-2{stroke-width:4px;}.cls-3,.cls-4{stroke-width:3px;}.cls-4{fill:none;}</style></defs><title>80x80_Light_snow</title><g id="Format"><rect class="cls-1" width="100" height="100"/></g><g id="Design"><polygon class="cls-2" points="77 49 82 44 82 34 75 27 57 27 52 22 38 22 31 29 31 29 22 29 17 34 17 44 22 49 77 49 77 49"/><line class="cls-3" x1="31.5" y1="63.5" x2="31.5" y2="57.5"/><line class="cls-3" x1="28.5" y1="60.5" x2="34.5" y2="60.5"/><line class="cls-3" x1="50.5" y1="60.5" x2="56.5" y2="60.5"/><line class="cls-3" x1="53.5" y1="63.5" x2="53.5" y2="57.5"/><line class="cls-3" x1="39.5" y1="72.5" x2="45.5" y2="72.5"/><line class="cls-3" x1="42.5" y1="75.5" x2="42.5" y2="69.5"/><polyline class="cls-4" points="31.5 29.5 41.5 29.5 46.5 34.5"/></g></svg>