<svg xmlns="http://www.w3.org/2000/svg" viewBox="0 0 100 100"><defs><style>.cls-1,.cls-2,.cls-4{fill:#fff;}.cls-2,.cls-3,.cls-4{stroke:#000;stroke-linecap:round;stroke-linejoin:round;}.cls-2,.cls-3{stroke-width:4px;}.cls-3{fill:none;}.cls-4{stroke-width:3px;}</style></defs><title>80x80_Snooze_a_reminder</title><g id="Format"><rect class="cls-1" width="100" height="100"/></g><g id="Design"><polygon class="cls-2" points="32 40 38 46 44 46 50 52 60 52 66 46 72 46 78 40 78 30 72 23 68 23 61 16 49 16 42 23 38 23 32 29 32 40 32 40"/><polyline class="cls-3" points="48 27 44 23 42 23"/><line class="cls-3" x1="44" y1="40" x2="44" y2="46"/><line class="cls-3" x1="66" y1="46" x2="66" y2="40"/><polyline class="cls-3" points="62 27 66 23 68 23"/><polygon class="cls-4" points="29.5 77.5 23.5 83.5 17.5 77.5 23.5 71.5 29.5 77.5 29.5 77.5"/><polygon class="cls-2" points="45 59 45 63.5 40.5 68 32.5 68 28 63.5 28 58.95 32.95 54 40 54 45 59"/></g></svg>