<svg xmlns="http://www.w3.org/2000/svg" viewBox="0 0 100 100"><defs><style>.cls-1,.cls-3{fill:#fff;}.cls-2{fill:none;}.cls-2,.cls-3{stroke:#000;stroke-linecap:round;stroke-linejoin:round;stroke-width:3px;}</style></defs><title>50x50_No_events</title><g id="Format"><rect class="cls-1" width="100" height="100"/></g><g id="Design"><line class="cls-2" x1="26.5" y1="29.5" x2="72.5" y2="29.5"/><polygon class="cls-3" points="42.5 31.5 42.5 27.5 48.5 27.5 48.5 47.5 54.5 53.5 54.5 31.5 56.5 29.5 56.5 27.5 62.5 27.5 62.5 53.5 66.5 53.5 72.5 59.5 68.5 67.5 48.5 73.5 26.5 53.5 34.5 31.5 42.5 31.5"/><polyline class="cls-2" points="58.5 63.5 62.5 59.5 62.5 53.5"/><polyline class="cls-2" points="36.5 51.5 40.5 47.5 40.5 31.5"/><line class="cls-2" x1="62.5" y1="58.5" x2="64.5" y2="60.5"/><line class="cls-2" x1="67.5" y1="63.5" x2="69.5" y2="65.5"/></g></svg>