<svg xmlns="http://www.w3.org/2000/svg" viewBox="0 0 100 100"><defs><style>.cls-1,.cls-2{fill:#fff;}.cls-2,.cls-3,.cls-4{stroke:#000;stroke-linecap:round;stroke-linejoin:round;}.cls-2,.cls-3{stroke-width:4px;}.cls-3,.cls-4{fill:none;}.cls-4{stroke-width:3px;}</style></defs><title>80x80_Missed_call</title><g id="Format"><rect class="cls-1" width="100" height="100"/></g><g id="Design"><polyline class="cls-2" points="73 79 79 55 84 34 77 27 49 27 44 48 38 72 45 79 73 79"/><line class="cls-3" x1="58" y1="27" x2="60" y2="19"/><polyline class="cls-3" points="77 27 72 48 66 72 38 72"/><polyline class="cls-3" points="16 68 37 47 23 33"/><line class="cls-4" x1="48.5" y1="53.5" x2="52.5" y2="53.5"/><line class="cls-4" x1="59.5" y1="53.5" x2="63.5" y2="53.5"/><line class="cls-4" x1="46.5" y1="59.5" x2="50.5" y2="59.5"/><line class="cls-4" x1="57.5" y1="59.5" x2="61.5" y2="59.5"/><line class="cls-4" x1="50.5" y1="47.5" x2="54.5" y2="47.5"/><line class="cls-4" x1="61.5" y1="47.5" x2="65.5" y2="47.5"/><line class="cls-4" x1="44.5" y1="65.5" x2="48.5" y2="65.5"/><line class="cls-4" x1="55.5" y1="65.5" x2="59.5" y2="65.5"/><line class="cls-4" x1="66.5" y1="72.5" x2="72.5" y2="78.5"/><polygon class="cls-4" points="67.5 41.5 51.5 41.5 53.5 33.5 69.5 33.5 67.5 41.5 67.5 41.5"/><polyline class="cls-3" points="22 40 22 32 30 32"/></g></svg>