<svg xmlns="http://www.w3.org/2000/svg" viewBox="0 0 100 100"><defs><style>.cls-1,.cls-2,.cls-3{fill:#fff;}.cls-2{stroke:#2f2f2f;}.cls-2,.cls-3,.cls-4{stroke-miterlimit:10;stroke-width:2px;}.cls-3,.cls-4{stroke:#000;}.cls-4{fill:none;}</style></defs><title>25x25_Eventbrite_performing_and_visual_arts</title><g id="Format"><rect class="cls-1" width="100" height="100"/></g><g id="Design"><polygon class="cls-2" points="44.5 40.5 38.5 46.5 38.5 52.5 46.5 60.5 54.5 60.5 57.5 58.5 57.5 54.5 55.5 52.5 55.5 44.5 51.5 40.5 44.5 40.5"/><line class="cls-3" x1="45.5" y1="44.5" x2="47.5" y2="46.5"/><line class="cls-3" x1="45.5" y1="46.5" x2="47.5" y2="44.5"/><line class="cls-3" x1="41.5" y1="48.5" x2="43.5" y2="50.5"/><line class="cls-3" x1="41.5" y1="50.5" x2="43.5" y2="48.5"/><line class="cls-3" x1="45.5" y1="53.5" x2="47.5" y2="55.5"/><line class="cls-3" x1="45.5" y1="55.5" x2="47.5" y2="53.5"/><line class="cls-3" x1="50.5" y1="55.5" x2="52.5" y2="57.5"/><line class="cls-3" x1="50.5" y1="57.5" x2="52.5" y2="55.5"/><line class="cls-4" x1="46.5" y1="54.5" x2="49.5" y2="51.5"/><line class="cls-4" x1="50.5" y1="50.5" x2="61.5" y2="39.5"/></g></svg>