<svg xmlns="http://www.w3.org/2000/svg" viewBox="0 0 100 100"><defs><style>.cls-1,.cls-2{fill:#fff;}.cls-2,.cls-3{stroke:#000;stroke-linecap:round;stroke-linejoin:round;stroke-width:2px;}.cls-3{fill:none;}</style></defs><title>25x25_Generic_weather</title><g id="Format"><rect class="cls-1" width="100" height="100"/></g><g id="Design"><polygon class="cls-2" points="55.5 43.5 53.5 45.5 53.5 49.5 55.5 51.5 59.5 51.5 61.5 49.5 61.5 45.5 59.5 43.5 55.5 43.5 55.5 43.5"/><line class="cls-3" x1="57.5" y1="38.5" x2="57.5" y2="40.5"/><line class="cls-3" x1="50.5" y1="40.5" x2="52.5" y2="42.5"/><polygon class="cls-2" points="59.5 57.5 61.5 55.5 61.5 51.5 59.5 49.5 52.5 49.5 49.5 46.5 46.5 46.5 43.5 49.5 40.5 49.5 38.5 51.5 38.5 55.5 40.5 57.5 59.5 57.5 59.5 57.5"/><line class="cls-3" x1="43.5" y1="49.5" x2="45.5" y2="51.5"/><line class="cls-2" x1="41.5" y1="61.5" x2="41.5" y2="60.5"/><line class="cls-2" x1="45.5" y1="61.5" x2="45.5" y2="60.5"/><line class="cls-2" x1="49.5" y1="61.5" x2="49.5" y2="60.5"/></g></svg>