<svg xmlns="http://www.w3.org/2000/svg" viewBox="0 0 100 100"><defs><style>.cls-1,.cls-2{fill:#fff;}.cls-2,.cls-3,.cls-4{stroke:#000;stroke-linecap:round;stroke-linejoin:round;}.cls-2,.cls-4{stroke-width:3px;}.cls-3,.cls-4{fill:none;}.cls-3{stroke-width:2px;}</style></defs><title>50x50_Eventbrite_auto_boat_and_air</title><g id="Format"><rect class="cls-1" width="100" height="100"/></g><g id="Design"><polygon class="cls-2" points="30.5 72.5 60.5 72.5 66.5 62.5 30.5 62.5 30.5 72.5"/><polygon class="cls-2" points="34.5 32.5 58.5 32.5 64.5 26.5 70.5 26.5 70.5 38.5 64.5 44.5 34.5 44.5 30.5 40.5 30.5 36.5 34.5 32.5"/><line class="cls-3" x1="41" y1="40" x2="55" y2="40"/><line class="cls-4" x1="26.5" y1="72.5" x2="73.5" y2="72.5"/><polygon class="cls-2" points="48.5 55.5 48.5 50.5 40.5 50.5 40.5 55.5 34.5 55.5 34.5 62.5 60.5 62.5 60.5 55.5 48.5 55.5"/><line class="cls-3" x1="65" y1="34" x2="73" y2="34"/><line class="cls-3" x1="41" y1="56" x2="48" y2="56"/><line class="cls-3" x1="40" y1="36" x2="41" y2="36"/><line class="cls-3" x1="45" y1="36" x2="46" y2="36"/><line class="cls-3" x1="50" y1="36" x2="51" y2="36"/><line class="cls-3" x1="55" y1="36" x2="56" y2="36"/><line class="cls-3" x1="40" y1="59" x2="41" y2="59"/><line class="cls-3" x1="45" y1="59" x2="46" y2="59"/><line class="cls-3" x1="50" y1="59" x2="51" y2="59"/><line class="cls-3" x1="55" y1="59" x2="56" y2="59"/></g></svg>