<svg xmlns="http://www.w3.org/2000/svg" viewBox="0 0 100 100"><defs><style>.cls-1,.cls-2{fill:#fff;}.cls-2,.cls-3{stroke:#000;stroke-linecap:round;stroke-linejoin:round;stroke-width:2px;}.cls-3{fill:none;}</style></defs><title>25x25_Generic_reminder</title><g id="Format"><rect class="cls-1" width="100" height="100"/></g><g id="Design"><polygon class="cls-2" points="56.5 50.5 56.5 38.5 52.5 38.5 52.5 45.5 40.5 45.5 40.5 53.5 43.5 56.5 43.5 61.5 54.5 61.5 54.5 57.5 57.5 53.5 57.5 50.5 56.5 50.5"/><line class="cls-3" x1="52.5" y1="45.5" x2="52.5" y2="50.5"/><line class="cls-3" x1="48.5" y1="52.5" x2="40.5" y2="52.5"/><polyline class="cls-3" points="52.5 54.5 48.5 54.5 48.5 50.5 57.5 50.5"/><line class="cls-3" x1="44.5" y1="45.5" x2="44.5" y2="52.5"/><line class="cls-3" x1="48.5" y1="45.5" x2="48.5" y2="52.5"/><line class="cls-3" x1="52.5" y1="43.5" x2="56.5" y2="43.5"/><line class="cls-3" x1="56.5" y1="43.5" x2="60.5" y2="47.5"/><line class="cls-3" x1="56.5" y1="43.5" x2="60.5" y2="39.5"/></g></svg>