<svg xmlns="http://www.w3.org/2000/svg" viewBox="0 0 100 100"><defs><style>.cls-1,.cls-2{fill:#fff;}.cls-2,.cls-3{stroke:#000;stroke-linecap:round;stroke-linejoin:round;}.cls-2{stroke-width:4px;}.cls-3{fill:none;stroke-width:3px;}</style></defs><title>80x80_Software_updating</title><g id="Format"><rect class="cls-1" width="100" height="100"/></g><g id="Design"><polygon class="cls-2" points="69 54 74 59 74 75 63 86 39 86 28 75 28 57 39 46 60 46 64 42 64 31 60 27 38 27 34 31 34 42 38 46 39 46 30 55 22 47 22 26 33 15 65 15 76 26 76 47 65 58 44 58 40 62 40 70 44 74 58 74 62 70 62 64 56 58 65 58 69 54 69 54"/><line class="cls-3" x1="44.5" y1="53.5" x2="49.5" y2="53.5"/><line class="cls-3" x1="53.5" y1="50.5" x2="58.5" y2="50.5"/></g></svg>