<svg xmlns="http://www.w3.org/2000/svg" viewBox="0 0 100 100"><defs><style>.cls-1,.cls-2{fill:#fff;}.cls-2,.cls-3,.cls-4{stroke:#000;stroke-linecap:round;stroke-linejoin:round;}.cls-2,.cls-3{stroke-width:4px;}.cls-3,.cls-4{fill:none;}.cls-4{stroke-width:3px;}</style></defs><title>80x80_Microphone</title><g id="Format"><rect class="cls-1" width="100" height="100"/></g><g id="Design"><polygon class="cls-2" points="55 70 63 62 63 33 55 25 46 25 38 33 38 62 46 70 55 70 55 70"/><line class="cls-3" x1="41" y1="88" x2="60" y2="88"/><line class="cls-4" x1="50.5" y1="17.5" x2="50.5" y2="11.5"/><line class="cls-4" x1="64.5" y1="23.5" x2="71.5" y2="16.5"/><line class="cls-4" x1="36.5" y1="23.5" x2="29.5" y2="16.5"/><line class="cls-4" x1="62.5" y1="38.5" x2="50.5" y2="35.5"/><line class="cls-4" x1="50.5" y1="59.5" x2="62.5" y2="56.5"/><line class="cls-4" x1="38.5" y1="38.5" x2="50.5" y2="35.5"/><line class="cls-4" x1="50.5" y1="59.5" x2="38.5" y2="56.5"/><line class="cls-4" x1="50.5" y1="25.5" x2="50.5" y2="69.5"/><line class="cls-4" x1="37.5" y1="47.5" x2="62.5" y2="47.5"/><polyline class="cls-4" points="68.5 65.5 57.5 76.5 43.5 76.5 32.5 65.5"/><line class="cls-4" x1="50.5" y1="76.5" x2="50.5" y2="87.5"/></g></svg>