<svg xmlns="http://www.w3.org/2000/svg" viewBox="0 0 100 100"><defs><style>.cls-1,.cls-2{fill:#fff;}.cls-2,.cls-3{stroke:#000;stroke-linecap:round;stroke-linejoin:round;stroke-width:2px;}.cls-3{fill:none;}</style></defs><title>25x25_Eventbrite_government_and_politics</title><g id="Format"><rect class="cls-1" width="100" height="100"/></g><g id="Design"><polygon class="cls-2" points="55.5 54.5 55.5 50.5 54.5 50.5 54.5 46.5 53.5 46.5 53.5 44.5 51.5 42.5 47.5 42.5 45.5 44.5 45.5 46.5 44.5 46.5 44.5 50.5 43.5 50.5 43.5 54.5 38.5 54.5 38.5 61.5 60.5 61.5 60.5 54.5 55.5 54.5"/><line class="cls-3" x1="49.5" y1="42.5" x2="49.5" y2="38.5"/><line class="cls-3" x1="53.5" y1="54.5" x2="53.5" y2="61.5"/><line class="cls-3" x1="49.5" y1="54.5" x2="49.5" y2="61.5"/><line class="cls-3" x1="45.5" y1="54.5" x2="45.5" y2="61.5"/><line class="cls-3" x1="45.5" y1="46.5" x2="53.5" y2="46.5"/><line class="cls-3" x1="44.5" y1="50.5" x2="54.5" y2="50.5"/><line class="cls-3" x1="43.5" y1="54.5" x2="55.5" y2="54.5"/><line class="cls-3" x1="42.5" y1="57.5" x2="41.5" y2="57.5"/><line class="cls-3" x1="56.5" y1="57.5" x2="57.5" y2="57.5"/></g></svg>