<svg xmlns="http://www.w3.org/2000/svg" viewBox="0 0 100 100"><defs><style>.cls-1,.cls-2{fill:#fff;}.cls-2{stroke:#000;stroke-linecap:round;stroke-linejoin:round;stroke-width:4px;}</style></defs><title>80x80_Software_updating_2</title><g id="Format"><rect class="cls-1" width="100" height="100"/></g><g id="Design"><polygon class="cls-2" points="68 31 59 22 49 22 49 14 37 26 49 38 49 30 55 30 62 37 68 31"/><polygon class="cls-2" points="69 68 78 59 78 49 86 49 74 37 62 49 70 49 70 55 63 62 69 68"/><polygon class="cls-2" points="32 69 41 78 51 78 51 86 63 74 51 62 51 70 45 70 38 63 32 69"/><polygon class="cls-2" points="31 32 22 41 22 51 14 51 26 63 38 51 30 51 30 45 37 38 31 32"/></g></svg>