<svg xmlns="http://www.w3.org/2000/svg" viewBox="0 0 100 100"><defs><style>.cls-1,.cls-3{fill:#fff;}.cls-2{fill:none;stroke-width:3px;}.cls-2,.cls-3{stroke:#000;stroke-linecap:round;stroke-linejoin:round;}.cls-3{stroke-width:4px;}</style></defs><title>80x80_Blackberry_messenger</title><g id="Format"><rect class="cls-1" width="100" height="100"/></g><g id="Design"><polygon class="cls-2" points="75.5 70.5 83.5 70.5 83.5 26.5 23.5 26.5 23.5 70.5 63.5 70.5 75.5 82.5 75.5 70.5"/><polygon class="cls-3" points="16 64 16 20 76 20 76 64 37 64 24 77 24 64 16 64"/><polygon class="cls-2" points="33.5 33.5 35.5 31.5 35.5 28.5 33.5 26.5 26.5 26.5 26.5 33.5 33.5 33.5"/><polygon class="cls-2" points="48.5 33.5 50.5 31.5 50.5 28.5 48.5 26.5 41.5 26.5 41.5 33.5 48.5 33.5"/><polygon class="cls-2" points="33.5 45.5 35.5 43.5 35.5 40.5 33.5 38.5 26.5 38.5 26.5 45.5 33.5 45.5"/><polygon class="cls-2" points="48.5 45.5 50.5 43.5 50.5 40.5 48.5 38.5 41.5 38.5 41.5 45.5 48.5 45.5"/><polygon class="cls-2" points="48.5 57.5 50.5 55.5 50.5 52.5 48.5 50.5 41.5 50.5 41.5 57.5 48.5 57.5"/><polygon class="cls-2" points="63.5 39.5 65.5 37.5 65.5 34.5 63.5 32.5 56.5 32.5 56.5 39.5 63.5 39.5"/><polygon class="cls-2" points="63.5 51.5 65.5 49.5 65.5 46.5 63.5 44.5 56.5 44.5 56.5 51.5 63.5 51.5"/></g></svg>