<svg xmlns="http://www.w3.org/2000/svg" viewBox="0 0 100 100"><defs><style>.cls-1,.cls-2{fill:#fff;}.cls-2,.cls-3{stroke:#000;stroke-linecap:round;stroke-linejoin:round;stroke-width:3px;}.cls-3{fill:none;}</style></defs><title>50x50_Snooze_a_reminder</title><g id="Format"><rect class="cls-1" width="100" height="100"/></g><g id="Design"><polygon class="cls-2" points="30.5 48.5 36.5 54.5 42.5 54.5 46.5 58.5 56.5 58.5 60.5 54.5 66.5 54.5 72.5 48.5 72.5 38.5 66.5 32.5 62.5 32.5 56.5 26.5 46.5 26.5 40.5 32.5 36.5 32.5 30.5 38.5 30.5 48.5"/><polyline class="cls-3" points="46.5 36.5 42.5 32.5 40.5 32.5"/><line class="cls-3" x1="42.5" y1="50.5" x2="42.5" y2="54.5"/><line class="cls-3" x1="60.5" y1="54.5" x2="60.5" y2="50.5"/><polyline class="cls-3" points="56.5 36.5 60.5 32.5 62.5 32.5"/><polygon class="cls-2" points="41.5 64.5 41.5 68.5 37.5 72.5 31.5 72.5 27.5 68.5 27.5 64.5 31.5 60.5 37.5 60.5 41.5 64.5"/></g></svg>