<svg xmlns="http://www.w3.org/2000/svg" viewBox="0 0 100 100"><defs><style>.cls-1,.cls-2{fill:#fff;}.cls-2,.cls-3,.cls-4{stroke:#000;stroke-linecap:round;stroke-linejoin:round;}.cls-2,.cls-4{stroke-width:4px;}.cls-3,.cls-4{fill:none;}.cls-3{stroke-width:3px;}</style></defs><title>80x80_Generic_reminder</title><g id="Format"><rect class="cls-1" width="100" height="100"/></g><g id="Design"><polygon class="cls-2" points="70 48 70 15 59 15 59 36 27 36 27 60 36 69 36 84 63 84 63 72 74 57 74 48 70 48"/><line class="cls-3" x1="59.5" y1="36" x2="59.5" y2="48"/><line class="cls-3" x1="49.5" y1="57.5" x2="27.5" y2="57.5"/><polyline class="cls-4" points="59 60 49 60 49 48 74 48"/><line class="cls-3" x1="38.5" y1="36.5" x2="38.5" y2="57.5"/><line class="cls-3" x1="48.5" y1="36.5" x2="48.5" y2="54.5"/><line class="cls-3" x1="59.5" y1="29.5" x2="69.5" y2="29.5"/><polygon class="cls-3" points="70.5 29.5 82.5 41.5 82.5 32.5 70.5 29.5 82.5 17.5 82.5 25.5 70.5 29.5"/></g></svg>