<svg xmlns="http://www.w3.org/2000/svg" viewBox="0 0 100 100"><defs><style>.cls-1,.cls-2,.cls-3{fill:#fff;}.cls-2,.cls-3,.cls-4,.cls-5{stroke:#000;stroke-linecap:round;stroke-linejoin:round;}.cls-2,.cls-4{stroke-width:4px;}.cls-3,.cls-5{stroke-width:3px;}.cls-4,.cls-5{fill:none;}</style></defs><title>80x80_Bluescreen_of_death</title><g id="Format"><rect class="cls-1" width="100" height="100"/></g><g id="Design"><polygon class="cls-2" points="39 85 39 73 28 73 20 65 20 53 63 53 63 65 55 73 55 85 39 85"/><polygon class="cls-3" points="78.5 46.5 78.5 52.5 69.5 61.5 63.5 61.5 63.5 56.5 67.5 56.5 73.5 50.5 73.5 46.5 78.5 46.5"/><polygon class="cls-2" points="68 46 84 46 84 19 81 16 71 16 68 19 68 46"/><line class="cls-4" x1="55" y1="85" x2="84" y2="85"/><line class="cls-4" x1="39" y1="85" x2="16" y2="85"/><line class="cls-4" x1="76" y1="16" x2="76" y2="12"/><line class="cls-5" x1="30.5" y1="53.5" x2="30.5" y2="61.5"/><line class="cls-5" x1="39.5" y1="53.5" x2="39.5" y2="59.5"/><line class="cls-5" x1="48.5" y1="53.5" x2="48.5" y2="66.5"/><line class="cls-5" x1="82.5" y1="46.5" x2="82.5" y2="53.5"/><line class="cls-5" x1="48.5" y1="71.5" x2="48.5" y2="73.5"/><line class="cls-5" x1="30.5" y1="73.5" x2="30.5" y2="77.5"/><line class="cls-2" x1="59" y1="53" x2="59" y2="50"/></g></svg>