<svg xmlns="http://www.w3.org/2000/svg" viewBox="0 0 100 100"><defs><style>.cls-1,.cls-3{fill:#fff;}.cls-2{fill:none;stroke-width:3px;}.cls-2,.cls-3{stroke:#000;stroke-linecap:round;stroke-linejoin:round;}.cls-3{stroke-width:4px;}</style></defs><title>80x80_Travelapp_cutlery</title><g id="Format"><rect class="cls-1" width="100" height="100"/></g><g id="Design"><line class="cls-2" x1="72.5" y1="32.5" x2="81" y2="24"/><line class="cls-2" x1="77" y1="20" x2="68.5" y2="28.5"/><line class="cls-2" x1="76.5" y1="36.5" x2="85" y2="28"/><line class="cls-2" x1="73" y1="16" x2="64.5" y2="24.5"/><polygon class="cls-3" points="76 36 74 34 68 28 65 25 56 34 56 40 22 74 22 78 23 79 27 79 61 45 67 45 76 36"/><polygon class="cls-3" points="72 79 50 57 44 57 20 33 20 23 23 20 77 74 77 78 76 79 72 79"/></g></svg>