<svg xmlns="http://www.w3.org/2000/svg" viewBox="0 0 100 100"><defs><style>.cls-1,.cls-2{fill:#fff;}.cls-2,.cls-3{stroke:#000;stroke-linecap:round;stroke-linejoin:round;stroke-width:3px;}.cls-3{fill:none;}</style></defs><title>50x50_Eventbrite_home_and_lifestyle</title><g id="Format"><rect class="cls-1" width="100" height="100"/></g><g id="Design"><polygon class="cls-2" points="60.5 31.5 66.5 31.5 66.5 47.5 60.5 41.5 60.5 31.5"/><polygon class="cls-2" points="66.5 69.5 30.5 69.5 30.5 47.5 48.5 29.5 66.5 47.5 66.5 69.5"/><rect class="cls-2" x="38.5" y="55.5" width="8" height="14"/><rect class="cls-2" x="52.5" y="55.5" width="6" height="8"/><polygon class="cls-2" points="52.5 49.5 44.5 49.5 44.5 43.5 48.5 39.5 52.5 43.5 52.5 49.5"/><line class="cls-3" x1="66.5" y1="47.5" x2="70.5" y2="51.5"/><line class="cls-3" x1="30.5" y1="47.5" x2="26.5" y2="51.5"/><line class="cls-3" x1="66.5" y1="69.5" x2="72.5" y2="69.5"/><line class="cls-3" x1="26.5" y1="69.5" x2="30.5" y2="69.5"/></g></svg>