<svg xmlns="http://www.w3.org/2000/svg" viewBox="0 0 100 100"><defs><style>.cls-1,.cls-2{fill:#fff;}.cls-2,.cls-3{stroke:#000;stroke-linecap:round;stroke-linejoin:round;}.cls-2{stroke-width:4px;}.cls-3{fill:none;stroke-width:3px;}</style></defs><title>80x80_Eventbrite_seasonal_and_holiday</title><g id="Format"><rect class="cls-1" width="100" height="100"/></g><g id="Design"><polyline class="cls-2" points="57.99 66 12.99 76 44 42"/><polygon class="cls-2" points="58 66 58 56 52 46 44 42 44 51 50 61 58 66 58 66"/><line class="cls-3" x1="51.5" y1="65.5" x2="24.5" y2="65.5"/><line class="cls-3" x1="47.5" y1="57.5" x2="30.5" y2="57.5"/><line class="cls-3" x1="58.5" y1="20.5" x2="67.5" y2="20.5"/><line class="cls-3" x1="49.5" y1="35.5" x2="56.5" y2="28.5"/><line class="cls-3" x1="81.5" y1="32.5" x2="87.5" y2="26.5"/><line class="cls-3" x1="88.5" y1="53.5" x2="82.5" y2="47.5"/><polyline class="cls-3" points="63.5 58.5 67.5 62.5 73.5 56.5 78.5 61.5 83.5 56.5"/><polyline class="cls-3" points="69.5 31.5 73.5 31.5 73.5 26.5 78.5 26.5 78.5 21.5"/><polyline class="cls-3" points="71 48.5 75.5 48.5 75.5 42.5 80.5 42.5 80.5 38"/><polygon class="cls-3" points="66.5 44.5 59.5 44.5 59.5 37.5 66.5 37.5 66.5 44.5 66.5 44.5"/></g></svg>