<svg xmlns="http://www.w3.org/2000/svg" viewBox="0 0 100 100"><defs><style>.cls-1,.cls-3{fill:#fff;}.cls-2,.cls-4{fill:none;}.cls-2,.cls-3,.cls-4{stroke:#000;stroke-linecap:round;stroke-linejoin:round;}.cls-2,.cls-3{stroke-width:3px;}.cls-4{stroke-width:4px;}</style></defs><title>80x80_Timer_and_stopwatch_timer</title><g id="Format"><rect class="cls-1" width="100" height="100"/></g><g id="Design"><line class="cls-2" x1="50.5" y1="51.5" x2="50.5" y2="54.5"/><line class="cls-2" x1="50.5" y1="59.5" x2="50.5" y2="62.5"/><polygon class="cls-3" points="62.5 79.5 50.5 67.5 38.5 79.5 62.5 79.5"/><polygon class="cls-3" points="69.5 27.5 31.5 27.5 31.5 33.5 50.5 52.5 69.5 33.5 69.5 27.5"/><line class="cls-4" x1="20" y1="80" x2="81" y2="80"/><line class="cls-4" x1="20" y1="19" x2="81" y2="19"/><polygon class="cls-4" points="70 19 70 33 54 49 70 65 70 80 31 80 31 65 47 49 31 33 31 19 70 19"/><line class="cls-2" x1="76.5" y1="15.5" x2="76.5" y2="79.5"/><line class="cls-2" x1="24.5" y1="15.5" x2="24.5" y2="79.5"/><polygon class="cls-3" points="19.5 47.5 19.5 51.5 22.5 54.5 26.5 54.5 29.5 51.5 29.5 47.5 26.5 44.5 22.5 44.5 19.5 47.5"/><polygon class="cls-3" points="71.5 47.5 71.5 51.5 74.5 54.5 78.5 54.5 81.5 51.5 81.5 47.5 78.5 44.5 74.5 44.5 71.5 47.5"/></g></svg>