<svg xmlns="http://www.w3.org/2000/svg" viewBox="0 0 100 100"><defs><style>.cls-1,.cls-2,.cls-4{fill:#fff;}.cls-2,.cls-3,.cls-4{stroke:#000;stroke-linecap:round;stroke-linejoin:round;}.cls-2{stroke-width:4px;}.cls-3{fill:none;}.cls-3,.cls-4{stroke-width:3px;}</style></defs><title>80x80_Eventbrite_government_and_politics</title><g id="Format"><rect class="cls-1" width="100" height="100"/></g><g id="Design"><polygon class="cls-2" points="65 60 65 50 62 50 62 40 59 40 59 33 55 29 44 29 40 33 40 40 37 40 37 50 34 50 34 60 18 60 18 78 81 78 81 60 65 60"/><line class="cls-3" x1="49.5" y1="28.5" x2="49.5" y2="17.5"/><line class="cls-3" x1="63.5" y1="60.5" x2="63.5" y2="77.5"/><line class="cls-3" x1="35.5" y1="60.5" x2="35.5" y2="77.5"/><line class="cls-3" x1="44.5" y1="60.5" x2="44.5" y2="77.5"/><line class="cls-3" x1="54.5" y1="60.5" x2="54.5" y2="77.5"/><line class="cls-3" x1="40.5" y1="40.5" x2="58.5" y2="40.5"/><line class="cls-3" x1="37.5" y1="50.5" x2="61.5" y2="50.5"/><polygon class="cls-4" points="63.5 60.5 49.5 46.5 35.5 60.5 63.5 60.5"/><line class="cls-3" x1="24.5" y1="65.5" x2="24.5" y2="67.5"/><line class="cls-3" x1="29.5" y1="65.5" x2="29.5" y2="67.5"/><line class="cls-3" x1="69.5" y1="65.5" x2="69.5" y2="67.5"/><line class="cls-3" x1="74.5" y1="65.5" x2="74.5" y2="67.5"/></g></svg>