<svg xmlns="http://www.w3.org/2000/svg" viewBox="0 0 100 100"><defs><style>.cls-1,.cls-2{fill:#fff;}.cls-2,.cls-3{stroke:#000;stroke-linecap:round;stroke-linejoin:round;stroke-width:4px;}.cls-3{fill:none;}</style></defs><title>80x80_Uber_When_driver_cancels_the_ride</title><g id="Format"><rect class="cls-1" width="100" height="100"/></g><g id="Design"><polygon class="cls-2" points="76 35 76 56 72 60 56 60 56 79 53 82 48 82 41 55 22 50 22 18 42 22 54 22 73 27 73 34 76 35"/><line class="cls-3" x1="64" y1="32" x2="73" y2="34"/><line class="cls-3" x1="63" y1="40" x2="76" y2="43"/><line class="cls-3" x1="63" y1="49" x2="76" y2="52"/><line class="cls-2" x1="31" y1="21" x2="31" y2="52"/><polyline class="cls-3" points="32 29 40 29 45 34 45 41 40 46 32 46"/><line class="cls-3" x1="31" y1="40" x2="23" y2="38"/><line class="cls-3" x1="23" y1="30" x2="31" y2="32"/></g></svg>