<svg xmlns="http://www.w3.org/2000/svg" viewBox="0 0 100 100"><defs><style>.cls-1,.cls-2,.cls-3{fill:#fff;}.cls-2,.cls-3,.cls-4{stroke:#000;stroke-linecap:round;stroke-linejoin:round;}.cls-2,.cls-4{stroke-width:4px;}.cls-3{stroke-width:3px;}.cls-4{fill:none;}</style></defs><title>80x80_Facetime_during</title><g id="Format"><rect class="cls-1" width="100" height="100"/></g><g id="Design"><polygon class="cls-2" points="17 51 17 71 26 80 59 80 68 71 68 51 59 42 26 42 17 51"/><polygon class="cls-2" points="68 65 83 80 83 42 68 56 68 65"/><polygon class="cls-3" points="46.5 50.5 37.5 50.5 31.5 56.5 31.5 65.5 37.5 71.5 46.5 71.5 52.5 65.5 52.5 56.5 46.5 50.5"/><line class="cls-4" x1="43" y1="32" x2="43" y2="21"/><line class="cls-4" x1="51" y1="33" x2="59" y2="25"/><line class="cls-4" x1="35" y1="33" x2="27" y2="25"/></g></svg>