<svg xmlns="http://www.w3.org/2000/svg" viewBox="0 0 100 100"><defs><style>.cls-1,.cls-2,.cls-3{fill:#fff;}.cls-2,.cls-3,.cls-4,.cls-5{stroke:#000;stroke-linecap:round;stroke-linejoin:round;}.cls-2,.cls-4{stroke-width:2px;}.cls-3,.cls-5{stroke-width:3px;}.cls-4,.cls-5{fill:none;}</style></defs><title>50x50_Eventbrite_travels_and_outdoor</title><g id="Format"><rect class="cls-1" width="100" height="100"/></g><g id="Design"><polygon class="cls-2" points="50 44 63 44 59 48 50 48 50 44"/><polygon class="cls-3" points="32.5 65.5 28.5 61.5 28.5 52.5 32.5 48.5 36.5 48.5 36.5 54.5 64.5 54.5 64.5 48.5 68.5 48.5 72.5 52.5 72.5 61.5 68.5 65.5 32.5 65.5"/><line class="cls-4" x1="66.95" y1="41" x2="37" y2="71"/><line class="cls-5" x1="68.5" y1="65.5" x2="74.5" y2="65.5"/><line class="cls-5" x1="26.5" y1="65.5" x2="32.5" y2="65.5"/><polygon class="cls-3" points="47.5 40.5 51.5 40.5 51.5 52.5 56.5 52.5 56.5 57.5 45.5 57.5 45.5 54.5 36.5 54.5 36.5 51.5 47.5 40.5"/><polygon class="cls-3" points="46.5 35.5 46.5 39.5 49.5 42.5 53.5 42.5 56.5 39.5 56.5 35.5 53.5 32.5 49.5 32.5 46.5 35.5"/><line class="cls-4" x1="46" y1="54" x2="46" y2="49"/></g></svg>