<svg xmlns="http://www.w3.org/2000/svg" viewBox="0 0 100 100"><defs><style>.cls-1,.cls-3{fill:#fff;}.cls-2{fill:none;}.cls-2,.cls-3{stroke:#000;stroke-linecap:round;stroke-linejoin:round;stroke-width:3px;}</style></defs><title>50x50_Mute-end</title><g id="Format"><rect class="cls-1" width="100" height="100"/></g><g id="Design"><line class="cls-2" x1="53.5" y1="53.5" x2="57.5" y2="57.5"/><polygon class="cls-3" points="69.5 41.5 73.5 37.5 73.5 31.5 69.5 27.5 63.5 27.5 61.5 29.5 69.5 41.5"/><polygon class="cls-3" points="41.5 37.5 47.5 29.5 61.5 29.5 69.5 37.5 69.5 49.5 65.5 53.5 49.5 53.5 41.5 45.5 41.5 37.5"/><polygon class="cls-3" points="59.5 37.5 65.5 43.5 65.5 57.5 55.5 47.5 55.5 41.5 59.5 37.5"/><polyline class="cls-2" points="51.5 73.5 57.5 67.5 57.5 57.5"/><polyline class="cls-2" points="65.5 57.5 65.5 67.5 59.5 73.5"/><line class="cls-2" x1="27.5" y1="73.5" x2="73.5" y2="73.5"/><polygon class="cls-3" points="35.5 45.5 35.5 37.5 43.5 37.5 49.5 43.5 49.5 51.5 41.5 51.5 35.5 45.5"/><line class="cls-3" x1="41.5" y1="45.5" x2="31.5" y2="73.5"/></g></svg>