<svg xmlns="http://www.w3.org/2000/svg" viewBox="0 0 100 100"><defs><style>.cls-1,.cls-3{fill:#fff;}.cls-2{fill:none;}.cls-2,.cls-3{stroke:#000;stroke-linecap:round;stroke-linejoin:round;stroke-width:4px;}</style></defs><title>80x80_Mute-middle</title><g id="Format"><rect class="cls-1" y="10" width="100" height="100"/></g><g id="Design"><polyline class="cls-2" points="75 72 75 90 67 95"/><line class="cls-2" x1="14" y1="96" x2="87" y2="96"/><polygon class="cls-3" points="52 64 65 73 65 64 52 64 52 64"/><polyline class="cls-3" points="82 46 87 41 87 33 78 25 67 25 63 33"/><polyline class="cls-3" points="41 46 44 35 71 31 82 42 82 55 75 62 65 62 52 62"/><polygon class="cls-3" points="61 49 69 42 75 48 75 72 61 58 61 49 61 49"/><polyline class="cls-2" points="65 62 65 74 65 89 55 95"/><polygon class="cls-3" points="31 52.5 31 44 41 44 52 57 52 66 41.5 66 31 52.5"/><polygon class="cls-3" points="19 61 26 74 31 74 44 58 37 51 29 66 21 54 18 53 12 65 19 61"/></g></svg>