<svg xmlns="http://www.w3.org/2000/svg" viewBox="0 0 100 100"><defs><style>.cls-1,.cls-2{fill:#fff;}.cls-2,.cls-3{stroke:#000;stroke-linecap:round;stroke-linejoin:round;}.cls-2{stroke-width:3px;}.cls-3{fill:none;stroke-width:2px;}</style></defs><title>50x50_Baseball_game</title><g id="Format"><rect class="cls-1" width="100" height="100"/></g><g id="Design"><polygon class="cls-2" points="29.5 59.5 29.5 40.5 39.5 30.5 59.5 30.5 69.5 40.5 69.5 59.5 59.5 69.5 39.5 69.5 29.5 59.5 29.5 59.5"/><polyline class="cls-3" points="38 68 46 60 46 40 38 32"/><polyline class="cls-3" points="63 35 60 38 60 62 63 65"/><line class="cls-3" x1="49" y1="59" x2="42" y2="59"/><line class="cls-3" x1="49" y1="53" x2="42" y2="53"/><line class="cls-3" x1="49" y1="41" x2="42" y2="41"/><line class="cls-3" x1="49" y1="47" x2="42" y2="47"/><line class="cls-3" x1="63" y1="59" x2="57" y2="59"/><line class="cls-3" x1="63" y1="53" x2="57" y2="53"/><line class="cls-3" x1="63" y1="41" x2="57" y2="41"/><line class="cls-3" x1="63" y1="47" x2="57" y2="47"/></g></svg>