<svg xmlns="http://www.w3.org/2000/svg" viewBox="0 0 100 100"><defs><style>.cls-1,.cls-2{fill:#fff;}.cls-2,.cls-3{stroke:#000;stroke-linecap:round;stroke-linejoin:round;stroke-width:2px;}.cls-3{fill:none;}</style></defs><title>25x25_Snooze_a_reminder</title><g id="Format"><rect class="cls-1" width="100" height="100"/></g><g id="Design"><polygon class="cls-2" points="40.5 49.5 43.5 52.5 46.5 52.5 48.5 54.5 53.5 54.5 55.5 52.5 58.5 52.5 61.5 49.5 61.5 44.5 58.5 41.5 56.5 41.5 53.5 38.5 48.5 38.5 45.5 41.5 43.5 41.5 40.5 44.5 40.5 49.5"/><polyline class="cls-3" points="48.5 43.5 46.5 41.5 45.5 41.5"/><line class="cls-3" x1="46.5" y1="50.5" x2="46.5" y2="52.5"/><line class="cls-3" x1="55.5" y1="52.5" x2="55.5" y2="50.5"/><polyline class="cls-3" points="53.5 43.5 55.5 41.5 56.5 41.5"/><polygon class="cls-2" points="45.5 57.5 45.5 59.5 43.5 61.5 40.5 61.5 38.5 59.5 38.5 57.5 40.5 55.5 43.5 55.5 45.5 57.5"/></g></svg>