<svg xmlns="http://www.w3.org/2000/svg" viewBox="0 0 100 100"><defs><style>.cls-1,.cls-3{fill:#fff;}.cls-2{fill:none;}.cls-2,.cls-3{stroke:#000;stroke-linecap:round;stroke-linejoin:round;stroke-width:2px;}</style></defs><title>25x25_Mute-end</title><g id="Format"><rect class="cls-1" width="100" height="100"/></g><g id="Design"><line class="cls-2" x1="51.5" y1="51.5" x2="53.5" y2="53.5"/><polygon class="cls-3" points="59.5 45.5 61.5 43.5 61.5 40.5 59.5 38.5 56.5 38.5 55.5 39.5 59.5 45.5"/><polygon class="cls-3" points="45.5 43.5 48.5 39.5 55.5 39.5 59.5 43.5 59.5 49.5 57.5 51.5 49.5 51.5 45.5 47.5 45.5 43.5"/><polygon class="cls-3" points="54.5 43.5 57.5 46.5 57.5 53.5 52.5 48.5 52.5 45.5 54.5 43.5"/><polyline class="cls-2" points="50.5 61.5 53.5 58.5 53.5 53.5"/><polyline class="cls-2" points="57.5 53.5 57.5 58.5 54.5 61.5"/><line class="cls-2" x1="38.5" y1="61.5" x2="61.5" y2="61.5"/><polygon class="cls-3" points="42.5 47.5 42.5 43.5 46.5 43.5 49.5 46.5 49.5 50.5 45.5 50.5 42.5 47.5"/><line class="cls-3" x1="45.5" y1="47.5" x2="40.5" y2="61.5"/></g></svg>