<svg xmlns="http://www.w3.org/2000/svg" viewBox="0 0 100 100"><defs><style>.cls-1,.cls-2{fill:#fff;}.cls-2,.cls-3,.cls-4{stroke:#000;}.cls-2,.cls-3{stroke-linecap:round;stroke-linejoin:round;stroke-width:4px;}.cls-3,.cls-4{fill:none;}.cls-4{stroke-miterlimit:10;stroke-width:3px;}</style></defs><title>80x80_Travelapp_ship_and_ferry</title><g id="Format"><rect class="cls-1" width="100" height="100"/></g><g id="Design"><polygon class="cls-2" points="74 42 58 26 50 26 50 36 34 36 34 28 23 28 23 36 17 42 17 70 71 70 85 42 74 42"/><line class="cls-3" x1="13" y1="70" x2="87" y2="70"/><line class="cls-3" x1="25" y1="50" x2="25" y2="49"/><line class="cls-3" x1="32" y1="50" x2="32" y2="49"/><line class="cls-3" x1="39" y1="50" x2="39" y2="49"/><line class="cls-3" x1="46" y1="50" x2="46" y2="49"/><line class="cls-3" x1="53" y1="50" x2="53" y2="49"/><line class="cls-3" x1="60" y1="50" x2="60" y2="49"/><line class="cls-3" x1="67" y1="50" x2="67" y2="49"/><line class="cls-4" x1="50.5" y1="36.5" x2="67.5" y2="36.5"/><line class="cls-4" x1="17.5" y1="42.5" x2="73.5" y2="42.5"/><line class="cls-4" x1="23.5" y1="36.5" x2="33.5" y2="36.5"/></g></svg>