<svg xmlns="http://www.w3.org/2000/svg" viewBox="0 0 100 100"><defs><style>.cls-1,.cls-2,.cls-3{fill:#fff;}.cls-2,.cls-3,.cls-4{stroke:#000;stroke-linecap:round;stroke-linejoin:round;}.cls-2{stroke-width:4px;}.cls-3,.cls-4{stroke-width:3px;}.cls-4{fill:none;}</style></defs><title>80x80_Uber_Car_lux</title><g id="Format"><rect class="cls-1" width="100" height="100"/></g><g id="Design"><polygon class="cls-2" points="88 60 24 60 24 50 32 42 44 39 61 39 67 45 85 45 88 57 88 60"/><polygon class="cls-3" points="72.5 53.5 69.5 56.5 69.5 61.5 72.5 64.5 77.5 64.5 80.5 61.5 80.5 56.5 77.5 53.5 72.5 53.5 72.5 53.5"/><polygon class="cls-3" points="34.5 53.5 31.5 56.5 31.5 61.5 34.5 64.5 39.5 64.5 42.5 61.5 42.5 56.5 39.5 53.5 34.5 53.5 34.5 53.5"/><line class="cls-4" x1="23.5" y1="39.5" x2="15.5" y2="39.5"/><line class="cls-4" x1="17.5" y1="47.5" x2="11.5" y2="47.5"/><line class="cls-4" x1="14.5" y1="55.5" x2="17.5" y2="55.5"/></g></svg>