<svg xmlns="http://www.w3.org/2000/svg" viewBox="0 0 100 100"><defs><style>.cls-1,.cls-3{fill:#fff;}.cls-2{fill:none;}.cls-2,.cls-3{stroke:#000;stroke-linecap:round;stroke-linejoin:round;stroke-width:2px;}</style></defs><title>25x25_Mute-start</title><g id="Format"><rect class="cls-1" y="3.5" width="100" height="100"/></g><g id="Design"><line class="cls-2" x1="38.5" y1="65" x2="61.5" y2="65"/><line class="cls-2" x1="51.5" y1="55" x2="53.5" y2="57"/><polygon class="cls-3" points="59.5 49 61.5 47 61.5 44 59.5 42 56.5 42 55.5 43 59.5 49"/><polygon class="cls-3" points="45.5 47 48.5 43 55.5 43 59.5 47 59.5 53 57.5 55 48.5 55 45.5 52 45.5 47"/><polygon class="cls-3" points="54.5 47 57.5 50 57.5 57 52.5 52 52.5 49 54.5 47"/><polyline class="cls-2" points="50.5 65 53.5 62 53.5 57"/><polyline class="cls-2" points="57.5 57 57.5 62 54.5 65"/><polygon class="cls-3" points="41.5 48 44.5 45 47.5 48 47.5 52 44.5 55 41.5 52 41.5 48"/><polyline class="cls-2" points="44.5 50 40.5 47 40.5 37"/><polygon class="cls-2" points="40.5 35 39.5 37 41.5 37 40.5 35"/></g></svg>