<svg xmlns="http://www.w3.org/2000/svg" viewBox="0 0 100 100"><defs><style>.cls-1,.cls-2,.cls-4{fill:#fff;}.cls-2,.cls-3,.cls-4{stroke:#000;stroke-linecap:round;stroke-linejoin:round;}.cls-2,.cls-3{stroke-width:4px;}.cls-3{fill:none;}.cls-4{stroke-width:3px;}</style></defs><title>80x80_Google_maps</title><g id="Format"><rect class="cls-1" width="100" height="100"/></g><g id="Design"><polygon class="cls-2" points="27 79 22 74 22 26 27 21 75 21 80 26 80 74 75 79 27 79"/><line class="cls-3" x1="77" y1="24" x2="25" y2="76"/><line class="cls-3" x1="77" y1="76" x2="51" y2="50"/><polygon class="cls-4" points="59.5 32.5 59.5 20.5 67.5 12.5 79.5 12.5 87.5 20.5 87.5 32.5 79.5 40.5 73.5 58.5 67.5 40.5 59.5 32.5"/><rect class="cls-4" x="69.96" y="22.96" width="7.07" height="7.07" transform="translate(2.79 59.73) rotate(-45)"/><polyline class="cls-2" points="42 31 40 29 35 29 30 34 30 39 35 44 40 44 45 39 45 36 40 36"/></g></svg>