<svg xmlns="http://www.w3.org/2000/svg" viewBox="0 0 100 100"><defs><style>.cls-1,.cls-2{fill:#fff;}.cls-2{stroke:#231f20;stroke-linecap:round;stroke-linejoin:round;stroke-width:2px;}</style></defs><title>50x50_Fin</title><g id="Format"><rect class="cls-1" width="100" height="100"/></g><g id="Design"><polygon class="cls-2" points="31 51 27 57 40 57 40 45 27 45 31 51"/><polygon class="cls-2" points="68 51 72 57 59 57 59 45 72 45 68 51"/><rect class="cls-2" x="36" y="38" width="27" height="15"/><polyline class="cls-2" points="42 49 42 42 46 42"/><line class="cls-2" x1="42" y1="46" x2="45" y2="46"/><line class="cls-2" x1="49" y1="49" x2="49" y2="42"/><polyline class="cls-2" points="52 49 52 42 57 49 57 42"/><line class="cls-2" x1="36" y1="53" x2="39" y2="56"/><line class="cls-2" x1="63" y1="53" x2="60" y2="56"/></g></svg>