<svg xmlns="http://www.w3.org/2000/svg" viewBox="0 0 100 100"><defs><style>.cls-1,.cls-3{fill:#fff;}.cls-2{fill:none;}.cls-2,.cls-3{stroke:#000;stroke-linecap:round;stroke-linejoin:round;stroke-width:2px;}</style></defs><title>25x25_Mute-middle</title><g id="Format"><rect class="cls-1" x="1.5" width="100" height="100"/></g><g id="Design"><line class="cls-2" x1="53" y1="51.5" x2="55" y2="53.5"/><polygon class="cls-3" points="61 45.5 63 43.5 63 40.5 61 38.5 58 38.5 57 39.5 61 45.5"/><polygon class="cls-3" points="47 43.5 50 39.5 57 39.5 61 43.5 61 49.5 59 51.5 51 51.5 47 47.5 47 43.5"/><polygon class="cls-3" points="56 43.5 59 46.5 59 53.5 54 48.5 54 45.5 56 43.5"/><polyline class="cls-2" points="52 61.5 55 58.5 55 53.5"/><polyline class="cls-2" points="59 53.5 59 58.5 56 61.5"/><line class="cls-2" x1="40" y1="61.5" x2="63" y2="61.5"/><polygon class="cls-3" points="44 47.5 44 43.5 48 43.5 51 46.5 51 50.5 47 50.5 44 47.5"/><polyline class="cls-2" points="47 47.5 42 51.5 39 47.5 37 49.5"/></g></svg>