<svg xmlns="http://www.w3.org/2000/svg" viewBox="0 0 100 100"><defs><style>.cls-1,.cls-2{fill:#fff;}.cls-2,.cls-3,.cls-4{stroke:#000;stroke-linecap:round;stroke-linejoin:round;}.cls-2,.cls-3{stroke-width:4px;}.cls-3,.cls-4{fill:none;}.cls-4{stroke-width:3px;}</style></defs><title>80x80_Snapchat</title><g id="Format"><rect class="cls-1" width="100" height="100"/></g><g id="Design"><polygon class="cls-2" points="56 80 64 76 70 76 71 72 79 70 79 66 68 59 66 51 78 45 78 42 76 40 66 40 66 28 57 19 43 19 34 28 34 40 24 40 22 42 22 45 34 51 32 59 21 66 21 70 29 72 30 76 36 76 44 80 56 80"/><line class="cls-3" x1="45" y1="30" x2="45" y2="33"/><line class="cls-3" x1="55" y1="30" x2="55" y2="33"/><polyline class="cls-4" points="42.5 39.5 47.5 41.5 53.5 41.5 58.5 39.5"/><line class="cls-3" x1="54" y1="42" x2="54" y2="44"/></g></svg>