<svg xmlns="http://www.w3.org/2000/svg" viewBox="0 0 100 100"><defs><style>.cls-1,.cls-2{fill:#fff;}.cls-2,.cls-3,.cls-4{stroke:#000;stroke-linecap:round;stroke-linejoin:round;}.cls-2,.cls-3{stroke-width:3px;}.cls-3,.cls-4{fill:none;}.cls-4{stroke-width:2px;}</style></defs><title>50x50_Dinner_reservation</title><g id="Format"><rect class="cls-1" width="100" height="100"/></g><g id="Design"><polygon class="cls-2" points="62.5 71.5 62.5 48.5 67.5 48.5 71.5 44.5 71.5 38.5 66.5 33.5 60.5 33.5 56.5 29.5 43.5 29.5 39.5 33.5 33.5 33.5 28.5 38.5 28.5 44.5 32.5 48.5 37.5 48.5 37.5 71.5 62.5 71.5"/><polyline class="cls-3" points="43.5 43.5 39.5 39.5 39.5 33.5"/><polyline class="cls-3" points="56.5 43.5 60.5 39.5 60.5 33.5"/><line class="cls-4" x1="38" y1="65" x2="61.5" y2="65"/><line class="cls-4" x1="43" y1="65" x2="43" y2="57"/><line class="cls-4" x1="57" y1="65" x2="57" y2="57"/><line class="cls-4" x1="50" y1="65" x2="50" y2="54"/></g></svg>