<svg xmlns="http://www.w3.org/2000/svg" viewBox="0 0 100 100"><defs><style>.cls-1,.cls-2{fill:#fff;}.cls-2{stroke:#000;stroke-linecap:round;stroke-linejoin:round;stroke-width:4px;}</style></defs><title>80x80_WeChat</title><g id="Format"><rect class="cls-1" width="100" height="100"/></g><g id="Design"><polygon class="cls-2" points="29 22 17 34 17 49 23 55 18 66 29 61 52 61 64 49 64 34 52 22 29 22 29 22"/><polygon class="cls-2" points="53 42 44 51 44 64 53 73 73 73 83 77 78 68 82 64 82 51 73 42 53 42 53 42"/><line class="cls-2" x1="36" y1="33" x2="32" y2="33"/><line class="cls-2" x1="50" y1="33" x2="46" y2="33"/><line class="cls-2" x1="59" y1="54" x2="55" y2="54"/><line class="cls-2" x1="72" y1="54" x2="68" y2="54"/></g></svg>