<svg xmlns="http://www.w3.org/2000/svg" viewBox="0 0 100 100"><defs><style>.cls-1,.cls-2{fill:#fff;}.cls-2{stroke:#000;stroke-linecap:round;stroke-linejoin:round;stroke-width:4px;}</style></defs><title>80x80_Music_event</title><g id="Format"><rect class="cls-1" width="100" height="100"/></g><g id="Design"><polygon class="cls-1" points="43 36 61 36 56 53 49 60 39 59 38 54 43 36"/><polyline class="cls-2" points="65 62 65 69 56 76 54 84 27 84 31 68 28 56 37 21 41 17 46 20 42 37"/><polyline class="cls-2" points="42 37 38 55 39 59 46 59"/><line class="cls-2" x1="51" y1="37" x2="49" y2="46"/><polyline class="cls-2" points="57 53 66 18 71 15 75 20 65 60"/><polyline class="cls-2" points="65 62 49 46 45 50 45 55 51 67"/><line class="cls-2" x1="43" y1="36" x2="61" y2="36"/></g></svg>