<svg xmlns="http://www.w3.org/2000/svg" viewBox="0 0 100 100"><defs><style>.cls-1,.cls-2{fill:#fff;}.cls-2,.cls-3{stroke:#000;stroke-linecap:round;stroke-linejoin:round;stroke-width:3px;}.cls-3{fill:none;}</style></defs><title>50x50_Soccer_game</title><g id="Format"><rect class="cls-1" width="100" height="100"/></g><g id="Design"><polygon class="cls-2" points="30.5 58.5 30.5 40.5 40.5 30.5 58.5 30.5 68.5 40.5 68.5 58.5 58.5 68.5 40.5 68.5 30.5 58.5"/><polygon class="cls-3" points="44.5 55.5 41.5 47.5 49.5 41.5 57.5 47.5 54.5 55.5 44.5 55.5 44.5 55.5"/><polyline class="cls-3" points="30.5 56.5 41.5 59.5 43.5 68.5"/><polyline class="cls-3" points="68.5 56.5 57.5 59.5 55.5 68.5"/><polyline class="cls-3" points="56.5 30.5 49.5 36.5 42.5 30.5"/><polyline class="cls-3" points="62.5 34.5 62.5 44.5 68.5 48.5"/><polyline class="cls-3" points="36.5 34.5 36.5 44.5 30.5 48.5"/></g></svg>