<svg xmlns="http://www.w3.org/2000/svg" viewBox="0 0 100 100"><defs><style>.cls-1,.cls-2{fill:#fff;}.cls-2,.cls-3{stroke:#000;stroke-linecap:round;stroke-linejoin:round;stroke-width:2px;}.cls-3{fill:none;}</style></defs><title>25x25_Eventbrite_auto_boat_and_air</title><g id="Format"><rect class="cls-1" width="100" height="100"/></g><g id="Design"><polygon class="cls-2" points="40.5 61.5 55.5 61.5 58.5 56.5 40.5 56.5 40.5 61.5"/><polygon class="cls-2" points="43.5 41.5 54.5 41.5 57.5 38.5 60.5 38.5 60.5 44.5 57.5 47.5 43.5 47.5 40.5 44.5 43.5 41.5"/><line class="cls-3" x1="47.5" y1="44.5" x2="53.5" y2="44.5"/><line class="cls-3" x1="38.5" y1="61.5" x2="61.5" y2="61.5"/><polygon class="cls-2" points="49.5 53.5 49.5 51.5 45.5 51.5 45.5 53.5 42.5 53.5 42.5 56.5 55.5 56.5 55.5 53.5 49.5 53.5"/><line class="cls-3" x1="58.5" y1="42.5" x2="61.5" y2="42.5"/></g></svg>