<svg xmlns="http://www.w3.org/2000/svg" viewBox="0 0 100 100"><defs><style>.cls-1,.cls-2{fill:#fff;}.cls-2,.cls-3{stroke:#000;stroke-linecap:round;stroke-linejoin:round;stroke-width:4px;}.cls-3{fill:none;}</style></defs><title>80x80_Fitnessapp_encourage_we_will_get_there</title><g id="Format"><rect class="cls-1" width="100" height="100"/></g><g id="Design"><polygon class="cls-2" points="74 60 84 50 74 40 74 26 60.04 26 50 16 40 26 26 26 26 40 16 50 26 60 26 74 40 74 50 84 60 74 74 74 74 60"/><line class="cls-3" x1="59" y1="42" x2="52" y2="42"/><line class="cls-3" x1="43" y1="38" x2="43" y2="45"/><polyline class="cls-3" points="37 54 43 63 57 63 63 54"/><polygon class="cls-2" points="50 16 50 29 31.01 35.27 50 16"/><polygon class="cls-2" points="21 45 16 28 27 17 44 22 21 45"/><line class="cls-3" x1="19" y1="25" x2="30" y2="36"/><line class="cls-3" x1="24" y1="20" x2="35" y2="31"/></g></svg>