<svg xmlns="http://www.w3.org/2000/svg" viewBox="0 0 100 100"><defs><style>.cls-1,.cls-3,.cls-4{fill:#fff;}.cls-2,.cls-5{fill:none;}.cls-2,.cls-3,.cls-4,.cls-5{stroke:#000;stroke-linecap:round;stroke-linejoin:round;}.cls-2,.cls-3{stroke-width:4px;}.cls-4,.cls-5{stroke-width:3px;}</style></defs><title>80x80_Travelapp_ground_transport_and_bus</title><g id="Format"><rect class="cls-1" width="100" height="100"/></g><g id="Design"><line class="cls-2" x1="12" y1="70" x2="88" y2="70"/><polygon class="cls-3" points="70 30 20 30 14 36 14 56 20 62 86 62 83 50 76 36 70 30"/><polygon class="cls-4" points="66.5 57.5 63.5 60.5 63.5 64.5 66.5 67.5 70.5 67.5 73.5 64.5 73.5 60.5 70.5 57.5 66.5 57.5 66.5 57.5"/><polygon class="cls-4" points="26.5 57.5 23.5 60.5 23.5 64.5 26.5 67.5 30.5 67.5 33.5 64.5 33.5 60.5 30.5 57.5 26.5 57.5 26.5 57.5"/><polyline class="cls-5" points="69.5 29.5 80.5 29.5 83.5 32.5"/><polyline class="cls-5" points="82.5 52.5 70.5 52.47 64.5 46.5 14.5 46.5"/><line class="cls-5" x1="75.5" y1="36.5" x2="14.5" y2="36.5"/><line class="cls-5" x1="64.5" y1="46.5" x2="64.5" y2="36.5"/></g></svg>