<svg xmlns="http://www.w3.org/2000/svg" viewBox="0 0 100 100"><defs><style>.cls-1,.cls-2{fill:#fff;}.cls-2,.cls-3{stroke:#000;stroke-linecap:round;stroke-linejoin:round;stroke-width:2px;}.cls-3{fill:none;}</style></defs><title>25x25_Eventbrite_travels_and_outdoor</title><g id="Format"><rect class="cls-1" width="100" height="100"/></g><g id="Design"><polygon class="cls-2" points="40.5 58.5 38.53 56.5 38.5 51.5 40.5 49.5 42.5 49.5 42.5 52.5 56.5 52.5 56.5 49.5 59.5 49.5 61.5 51.5 61.5 56.5 59.5 58.5 40.5 58.5"/><polygon class="cls-2" points="47.5 45.5 51.5 49.5 48.5 52.5 42.5 52.5 42.5 50.5 47.5 45.5"/><polygon class="cls-2" points="49.5 40.5 47.5 42.5 47.5 44.5 49.5 46.5 51.5 46.5 53.5 44.5 53.5 42.5 51.5 40.5 49.5 40.5 49.5 40.5"/><line class="cls-3" x1="56.5" y1="46.5" x2="41.5" y2="61.5"/><line class="cls-3" x1="59.5" y1="58.5" x2="63.5" y2="58.5"/><line class="cls-3" x1="36.5" y1="58.5" x2="40.5" y2="58.5"/></g></svg>