<svg xmlns="http://www.w3.org/2000/svg" viewBox="0 0 100 100"><defs><style>.cls-1,.cls-2,.cls-3{fill:#fff;}.cls-2,.cls-3,.cls-4,.cls-5{stroke:#000;stroke-linecap:round;stroke-linejoin:round;}.cls-2,.cls-5{stroke-width:3px;}.cls-3,.cls-4{stroke-width:4px;}.cls-4,.cls-5{fill:none;}</style></defs><title>80x80_Eventbrite_home_and_lifestyle</title><g id="Format"><rect class="cls-1" width="100" height="100"/></g><g id="Design"><polygon class="cls-2" points="72.5 43.5 79.5 43.5 79.5 56.5 72.5 49.5 72.5 43.5"/><polygon class="cls-3" points="82 81 36 81 36 60 59 37 82 60 82 81"/><line class="cls-4" x1="82" y1="60" x2="88" y2="66"/><polygon class="cls-3" points="31 38 23 38 12 49 12 59 20 67 34 67 42 59 42 49 31 38"/><polyline class="cls-4" points="27 45 27 81 36 81"/><line class="cls-5" x1="26.5" y1="59.5" x2="20.5" y2="53.5"/><line class="cls-5" x1="27.5" y1="63.5" x2="34.5" y2="56.5"/><rect class="cls-2" x="46.5" y="66.5" width="9" height="14"/><rect class="cls-2" x="63.5" y="66.5" width="9" height="8"/><polygon class="cls-2" points="63.5 57.5 54.5 57.5 54.5 50.5 57.5 47.5 60.5 47.5 63.5 50.5 63.5 57.5"/></g></svg>