<svg xmlns="http://www.w3.org/2000/svg" viewBox="0 0 100 100"><defs><style>.cls-1,.cls-2,.cls-3{fill:#fff;}.cls-2,.cls-3,.cls-4{stroke:#000;stroke-miterlimit:10;}.cls-2{stroke-width:4px;}.cls-3{stroke-width:3px;}.cls-4{fill:none;stroke-width:5px;}</style></defs><title>80x80_Eventbrite_performing_and_visual_arts</title><g id="Format"><rect class="cls-1" width="100" height="100"/></g><g id="Design"><polygon class="cls-2" points="33 18 15 36 15 56 40 81 65 81 75 74 75 63 68 56 68 30 56 18 33 18"/><polygon class="cls-3" points="82.5 12.5 84.5 12.5 86.5 14.5 86.5 16.5 58.5 44.5 46.5 52.5 54.5 40.5 82.5 12.5"/><polygon class="cls-3" points="40.5 27.5 37.5 27.5 34.5 30.5 34.5 33.5 37.5 36.5 40.5 36.5 43.5 33.5 43.5 30.5 40.5 27.5"/><polygon class="cls-3" points="30.5 39.5 25.5 39.5 22.5 42.5 22.5 47.5 25.5 50.5 30.5 50.5 33.5 47.5 33.5 42.5 30.5 39.5"/><polygon class="cls-3" points="60.5 61.5 55.5 61.5 52.5 64.5 52.5 69.5 55.5 72.5 60.5 72.5 63.5 69.5 63.5 64.5 60.5 61.5"/><polygon class="cls-3" points="40.5 55.5 35.5 55.5 32.5 58.5 32.5 63.5 35.5 66.5 40.5 66.5 43.5 63.5 43.5 58.5 40.5 55.5"/><polygon class="cls-3" points="42.5 25.5 37.5 25.5 34.5 28.5 34.5 33.5 37.5 36.5 42.5 36.5 45.5 33.5 45.5 28.5 42.5 25.5"/><line class="cls-4" x1="37" y1="62" x2="45" y2="54"/></g></svg>