<svg xmlns="http://www.w3.org/2000/svg" viewBox="0 0 100 100"><defs><style>.cls-1,.cls-3{fill:#fff;}.cls-2{fill:none;}.cls-2,.cls-3{stroke:#000;stroke-linecap:round;stroke-linejoin:round;stroke-width:3px;}</style></defs><title>50x50_Mute-start</title><g id="Format"><rect class="cls-1" y="6.5" width="100" height="100"/></g><g id="Design"><line class="cls-2" x1="27.5" y1="80" x2="73.5" y2="80"/><line class="cls-2" x1="53.5" y1="60" x2="57.5" y2="64"/><polygon class="cls-3" points="69.5 48 73.5 44 73.5 38 69.5 34 63.5 34 61.5 36 69.5 48"/><polygon class="cls-3" points="41.5 44 47.5 36 61.5 36 69.5 44 69.5 56 65.5 60 47.5 60 41.5 54 41.5 44"/><polygon class="cls-3" points="59.5 44 65.5 50 65.5 64 55.5 54 55.5 48 59.5 44"/><polyline class="cls-2" points="51.5 80 57.5 74 57.5 64"/><polyline class="cls-2" points="65.5 64 65.5 74 59.5 80"/><polygon class="cls-3" points="33.5 46 39.5 40 45.5 46 45.5 54 39.5 60 33.5 54 33.5 46"/><polyline class="cls-2" points="39.5 50 31.5 44 31.5 24"/><polygon class="cls-2" points="31.5 20 29.5 24 33.5 24 31.5 20"/></g></svg>