<svg xmlns="http://www.w3.org/2000/svg" viewBox="0 0 100 100"><defs><style>.cls-1,.cls-2{fill:#fff;}.cls-2,.cls-3{stroke:#000;stroke-linecap:round;stroke-linejoin:round;stroke-width:2px;}.cls-3{fill:none;}</style></defs><title>25x25_Dismiss</title><g id="Format"><rect class="cls-1" width="100" height="100"/></g><g id="Design"><polygon class="cls-2" points="42.5 52.5 45.5 55.5 47.5 55.5 49.5 57.5 52.5 57.5 54.5 55.5 57.5 55.5 59.5 53.5 59.5 45.5 57.5 43.5 54.5 43.5 52.5 41.5 49.5 41.5 47.5 43.5 45.5 43.5 42.5 46.5 42.5 52.5"/><line class="cls-3" x1="46.5" y1="43.5" x2="49.5" y2="46.5"/><line class="cls-3" x1="46.5" y1="55.5" x2="49.5" y2="52.5"/><line class="cls-3" x1="61.5" y1="47.5" x2="53.5" y2="47.5"/><line class="cls-3" x1="61.5" y1="51.5" x2="53.5" y2="51.5"/><line class="cls-2" x1="42.5" y1="41.5" x2="40.5" y2="41.5"/><line class="cls-2" x1="45.5" y1="59.5" x2="43.5" y2="59.5"/><line class="cls-2" x1="40.5" y1="55.5" x2="38.5" y2="55.5"/></g></svg>