<svg xmlns="http://www.w3.org/2000/svg" viewBox="0 0 100 100"><defs><style>.cls-1,.cls-2{fill:#fff;}.cls-2,.cls-3,.cls-4{stroke:#000;stroke-linecap:round;stroke-linejoin:round;}.cls-2,.cls-3{stroke-width:4px;}.cls-3,.cls-4{fill:none;}.cls-4{stroke-width:3px;}</style></defs><title>80x80_Outgoing_call</title><g id="Format"><rect class="cls-1" width="100" height="100"/></g><g id="Design"><polyline class="cls-2" points="52 80 58 56 63 35 56 28 28 28 23 49 17 73 24 80 52 80"/><line class="cls-3" x1="37" y1="28" x2="39" y2="20"/><polyline class="cls-3" points="56 28 51 49 45 73 17 73"/><line class="cls-4" x1="27.5" y1="54.5" x2="31.5" y2="54.5"/><line class="cls-4" x1="38.5" y1="54.5" x2="42.5" y2="54.5"/><line class="cls-4" x1="25.5" y1="60.5" x2="29.5" y2="60.5"/><line class="cls-4" x1="36.5" y1="60.5" x2="40.5" y2="60.5"/><line class="cls-4" x1="29.5" y1="48.5" x2="33.5" y2="48.5"/><line class="cls-4" x1="40.5" y1="48.5" x2="44.5" y2="48.5"/><line class="cls-4" x1="23.5" y1="66.5" x2="27.5" y2="66.5"/><line class="cls-4" x1="34.5" y1="66.5" x2="38.5" y2="66.5"/><line class="cls-4" x1="45.5" y1="73.5" x2="51.5" y2="79.5"/><polygon class="cls-4" points="46.5 42.5 30.5 42.5 32.5 34.5 48.5 34.5 46.5 42.5 46.5 42.5"/><line class="cls-3" x1="68" y1="47" x2="82" y2="33"/><polyline class="cls-3" points="83 40 83 32 75 32"/></g></svg>