<svg xmlns="http://www.w3.org/2000/svg" viewBox="0 0 100 100"><defs><style>.cls-1,.cls-2,.cls-3{fill:#fff;}.cls-2,.cls-3,.cls-4{stroke:#000;stroke-linecap:round;stroke-linejoin:round;}.cls-2{stroke-width:4px;}.cls-3,.cls-4{stroke-width:3px;}.cls-4{fill:none;}</style></defs><title>80x80_Eventbrite_hobbies_and_special_interest</title><g id="Format"><rect class="cls-1" width="100" height="100"/></g><g id="Design"><polygon class="cls-2" points="18 57 18 70 29 81 42 81 53 70 53 60 58 55 58 50 49 41 44 41 39 46 29 46 18 57"/><polygon class="cls-3" points="42.5 60.5 69.5 33.5 73.5 33.5 81.5 25.5 73.5 17.5 65.5 25.5 65.5 29.5 38.5 56.5 35.5 56.5 32.5 59.5 32.5 63.5 35.5 66.5 39.5 66.5 42.5 63.5 42.5 60.5"/><line class="cls-4" x1="68.5" y1="16.5" x2="71.5" y2="19.5"/><line class="cls-4" x1="79.5" y1="27.5" x2="82.5" y2="30.5"/><line class="cls-4" x1="64.5" y1="20.5" x2="67.5" y2="23.5"/><line class="cls-4" x1="75.5" y1="31.5" x2="78.5" y2="34.5"/></g></svg>