<svg xmlns="http://www.w3.org/2000/svg" viewBox="0 0 100 100"><defs><style>.cls-1,.cls-2{fill:#fff;}.cls-2,.cls-3{stroke:#000;stroke-linecap:round;stroke-linejoin:round;}.cls-2{stroke-width:4px;}.cls-3{fill:none;stroke-width:3px;}</style></defs><title>80x80_Eventbrite_sports_and_fitness</title><g id="Format"><rect class="cls-1" width="100" height="100"/></g><g id="Design"><polygon class="cls-2" points="62 51 71 33 65 15 50 45 62 51"/><polygon class="cls-2" points="33 51 24 33 30 15 45 45 33 51"/><polygon class="cls-2" points="29 54 40 43 55 43 66 54 66 69 55 80 40 80 29 69 29 54"/><line class="cls-3" x1="23.5" y1="73.5" x2="17.5" y2="79.5"/><line class="cls-3" x1="79.5" y1="79.5" x2="73.5" y2="73.5"/><line class="cls-3" x1="75.5" y1="61.5" x2="81.5" y2="61.5"/><line class="cls-3" x1="13.5" y1="61.5" x2="19.5" y2="61.5"/><polygon class="cls-2" points="58 29 37 29 30 15 65 15 58 29"/><polygon class="cls-3" points="40.5 56.5 42.5 58.5 45.5 58.5 45.5 65.5 42.5 65.5 42.5 70.5 53.5 70.5 53.5 65.5 50.5 65.5 50.5 51.5 45.5 51.5 40.5 56.5"/></g></svg>