<svg xmlns="http://www.w3.org/2000/svg" viewBox="0 0 100 100"><defs><style>.cls-1,.cls-2{fill:#fff;}.cls-2{stroke:#000;stroke-linecap:round;stroke-linejoin:round;stroke-width:2px;}</style></defs><title>25x25_WeChat</title><g id="Format"><rect class="cls-1" width="100" height="100"/></g><g id="Design"><polygon class="cls-2" points="38.5 43.5 38.5 49.5 40.5 51.5 40.5 55.5 42.5 53.5 50.5 53.5 54.5 49.5 54.5 43.5 50.5 39.5 42.5 39.5 38.5 43.5"/><polygon class="cls-2" points="48.5 50.5 48.5 55.5 51.5 58.5 58.5 58.5 60.5 60.5 60.5 56.5 61.5 55.5 61.5 50.5 58.5 47.5 51.5 47.5 48.5 50.5"/><line class="cls-2" x1="44.5" y1="44.5" x2="42.5" y2="44.5"/><line class="cls-2" x1="50.5" y1="44.5" x2="48.5" y2="44.5"/><line class="cls-2" x1="53.5" y1="52.5" x2="51.5" y2="52.5"/><line class="cls-2" x1="58.5" y1="52.5" x2="56.5" y2="52.5"/></g></svg>