<svg xmlns="http://www.w3.org/2000/svg" viewBox="0 0 100 100"><defs><style>.cls-1,.cls-2{fill:#fff;}.cls-2{stroke:#000;stroke-linecap:round;stroke-linejoin:round;stroke-width:2px;}</style></defs><title>25x25_Eventbrite_community_and_culture</title><g id="Format"><rect class="cls-1" width="100" height="100"/></g><g id="Design"><polygon class="cls-2" points="42.5 48.5 39.5 51.5 39.5 61.5 47.5 61.5 47.5 52.5 54.5 52.5 54.5 48.5 42.5 48.5"/><polygon class="cls-2" points="42.5 38.5 40.5 40.5 40.5 43.5 42.5 45.5 45.5 45.5 47.5 43.5 47.5 40.5 45.5 38.5 42.5 38.5"/><polygon class="cls-2" points="54.5 38.5 52.5 40.5 52.5 43.5 54.5 45.5 57.5 45.5 59.5 43.5 59.5 40.5 57.5 38.5 54.5 38.5"/><polygon class="cls-2" points="54.5 48.5 51.5 51.5 51.5 61.5 60.5 61.5 60.5 51.5 57.5 48.5 54.5 48.5"/></g></svg>