<svg xmlns="http://www.w3.org/2000/svg" viewBox="0 0 100 100"><defs><style>.cls-1,.cls-2{fill:#fff;}.cls-2{stroke:#000;stroke-miterlimit:10;stroke-width:2px;}</style></defs><title>25x25_Skype</title><g id="Format"><rect class="cls-1" width="100" height="100"/></g><g id="Design"><polygon class="cls-2" points="59.5 51.5 59.5 45.5 54.5 40.5 48.5 40.5 46.5 38.5 41.5 38.5 38.5 41.5 38.5 46.5 40.5 48.5 40.5 54.5 45.5 59.5 51.5 59.5 53.5 61.5 58.5 61.5 61.5 58.5 61.5 53.5 59.5 51.5"/><polyline class="cls-2" points="46.5 51.5 46.5 53.5 47.5 54.5 52.5 54.5 53.5 53.5 53.5 51.5 46.5 48.5 46.5 46.5 47.5 45.5 52.5 45.5 53.5 46.5 53.5 48.5"/></g></svg>