<svg xmlns="http://www.w3.org/2000/svg" viewBox="0 0 100 100"><defs><style>.cls-1,.cls-2{fill:#fff;}.cls-2,.cls-3,.cls-4{stroke:#000;stroke-width:2px;}.cls-2,.cls-3{stroke-linecap:round;stroke-linejoin:round;}.cls-3,.cls-4{fill:none;}.cls-4{stroke-miterlimit:10;}</style></defs><title>25x25_Travelapp_ship_and_ferry</title><g id="Format"><rect class="cls-1" width="100" height="100"/></g><g id="Design"><polygon class="cls-2" points="57.5 49.5 50.5 41.5 47.5 41.5 47.5 45.5 44.5 45.5 44.5 41.5 40.5 41.5 40.5 45.5 38.5 48.5 38.5 57.5 57.5 57.5 61.5 49.5 57.5 49.5"/><line class="cls-3" x1="42.5" y1="53.5" x2="42.5" y2="52.5"/><line class="cls-3" x1="46.5" y1="53.5" x2="46.5" y2="52.5"/><line class="cls-3" x1="50.5" y1="53.5" x2="50.5" y2="52.5"/><line class="cls-3" x1="54.5" y1="53.5" x2="54.5" y2="52.5"/><line class="cls-4" x1="47.5" y1="45.5" x2="54.5" y2="45.5"/><line class="cls-4" x1="38.5" y1="49.5" x2="57.5" y2="49.5"/><line class="cls-4" x1="40.5" y1="45.5" x2="44.5" y2="45.5"/><line class="cls-4" x1="62.5" y1="57.5" x2="57.5" y2="57.5"/></g></svg>