<svg xmlns="http://www.w3.org/2000/svg" viewBox="0 0 100 100"><defs><style>.cls-1,.cls-2{fill:#fff;}.cls-2,.cls-3,.cls-4{stroke:#000;stroke-linecap:round;stroke-linejoin:round;}.cls-2,.cls-3{stroke-width:4px;}.cls-3,.cls-4{fill:none;}.cls-4{stroke-width:3px;}</style></defs><title>80x80_Uber_Changed_location</title><g id="Format"><rect class="cls-1" width="100" height="100"/></g><g id="Design"><path class="cls-2" d="M78,17H62l-8,8V37L70,77,86,37V25ZM77,35l-4,4H67l-4-4V29l4-4h6l4,4Z"/><polygon class="cls-3" points="62 71 78 71 84 77 78 83 62 83 56 77 62 71"/><line class="cls-4" x1="35.5" y1="19.5" x2="39.5" y2="23.5"/><line class="cls-4" x1="23.5" y1="17.5" x2="30.5" y2="17.5"/><line class="cls-4" x1="14.5" y1="23.5" x2="18.5" y2="19.5"/><line class="cls-4" x1="12.5" y1="35.5" x2="12.5" y2="28.5"/><line class="cls-4" x1="22.5" y1="48.5" x2="14.5" y2="40.5"/><polyline class="cls-4" points="39 57.5 31.5 57.5 25.5 51.5"/><line class="cls-4" x1="52.5" y1="57.5" x2="44.5" y2="57.5"/><line class="cls-4" x1="41.5" y1="28.5" x2="41.5" y2="35.5"/><line class="cls-4" x1="39.5" y1="40.5" x2="31.5" y2="48.5"/><line class="cls-4" x1="22.5" y1="56.5" x2="15.5" y2="63.5"/></g></svg>