<svg xmlns="http://www.w3.org/2000/svg" viewBox="0 0 100 100"><defs><style>.cls-1,.cls-3{fill:#fff;}.cls-2,.cls-4{fill:none;}.cls-2,.cls-3,.cls-4{stroke:#000;stroke-linecap:round;stroke-linejoin:round;}.cls-2{stroke-width:3px;}.cls-3,.cls-4{stroke-width:4px;}</style></defs><title>80x80_Soccer_game</title><g id="Format"><rect class="cls-1" width="100" height="100"/></g><g id="Design"><line class="cls-2" x1="17" y1="73" x2="33" y2="69"/><line class="cls-2" x1="19" y1="55" x2="31" y2="52"/><line class="cls-2" x1="12" y1="66" x2="24" y2="63"/><polygon class="cls-3" points="38 61 38 37 51 24 75 24 88 37 88 61 75 74 51 74 38 61 38 61"/><polygon class="cls-4" points="57 57 53 46 63 39 73 46 69 57 57 57 57 57"/><polyline class="cls-4" points="38 59 52 62 55 74"/><polyline class="cls-4" points="88 59 74 62 71 74"/><polyline class="cls-4" points="73 24 63 32 54 24"/><polyline class="cls-4" points="80 29 80 42 88 48"/><polyline class="cls-4" points="46 29 46 42 38 48"/></g></svg>