<svg xmlns="http://www.w3.org/2000/svg" viewBox="0 0 100 100"><defs><style>.cls-1,.cls-2,.cls-4{fill:#fff;}.cls-2,.cls-3,.cls-4,.cls-5{stroke:#000;stroke-linecap:round;stroke-linejoin:round;}.cls-2,.cls-5{stroke-width:4px;}.cls-3,.cls-5{fill:none;}.cls-3,.cls-4{stroke-width:3px;}</style></defs><title>80x80_Uber_ride_canceled</title><g id="Format"><rect class="cls-1" width="100" height="100"/></g><g id="Design"><polygon class="cls-2" points="42 32 35 53 73 53 66 32 42 32"/><line class="cls-3" x1="47.5" y1="17" x2="47.5" y2="11.5"/><line class="cls-3" x1="37.5" y1="28.5" x2="37.5" y2="17.5"/><line class="cls-3" x1="72.5" y1="31.5" x2="72.5" y2="21.5"/><line class="cls-3" x1="65.5" y1="25.5" x2="65.5" y2="15.5"/><polygon class="cls-2" points="83 83 29 83 29 68 37 66 42 61 63 61 71 69 83 72 83 83"/><polygon class="cls-4" points="66.5 77.5 63.5 80.5 63.5 85.5 66.5 88.5 71.5 88.5 74.5 85.5 74.5 80.5 71.5 77.5 66.5 77.5 66.5 77.5"/><polygon class="cls-4" points="38.5 77.5 35.5 80.5 35.5 85.5 38.5 88.5 43.5 88.5 46.5 85.5 46.5 80.5 43.5 77.5 38.5 77.5 38.5 77.5"/><line class="cls-3" x1="25.5" y1="62.5" x2="19" y2="62.5"/><line class="cls-3" x1="20.5" y1="70.5" x2="13.5" y2="70.5"/><line class="cls-3" x1="17.5" y1="78.5" x2="20.5" y2="78.5"/><polygon class="cls-5" points="49 29 49 25 52 22 56 22 59 25 59 29 56 32 52 32 49 29"/></g></svg>