<svg xmlns="http://www.w3.org/2000/svg" viewBox="0 0 100 100"><defs><style>.cls-1,.cls-2,.cls-3{fill:#fff;}.cls-2,.cls-3,.cls-4{stroke:#000;stroke-linecap:round;stroke-linejoin:round;}.cls-2{stroke-width:4px;}.cls-3,.cls-4{stroke-width:3px;}.cls-4{fill:none;}</style></defs><title>80x80_Uber_Car_suv</title><g id="Format"><rect class="cls-1" width="100" height="100"/></g><g id="Design"><polygon class="cls-2" points="84 59 30 59 26 55 26 51 30 35 64 35 71 42 87 46 84 59"/><polygon class="cls-3" points="37.5 52.5 33.5 56.5 33.5 61.5 37.5 65.5 42.5 65.5 46.5 61.5 46.5 56.5 42.5 52.5 37.5 52.5 37.5 52.5"/><polygon class="cls-3" points="67.5 52.5 63.5 56.5 63.5 61.5 67.5 65.5 72.5 65.5 76.5 61.5 76.5 56.5 72.5 52.5 67.5 52.5 67.5 52.5"/><line class="cls-4" x1="21.5" y1="39.5" x2="13.5" y2="39.5"/><line class="cls-4" x1="18.5" y1="47.5" x2="11.5" y2="47.5"/><line class="cls-4" x1="14.5" y1="55.5" x2="18.5" y2="55.5"/></g></svg>