<svg xmlns="http://www.w3.org/2000/svg" viewBox="0 0 100 100"><defs><style>.cls-1,.cls-2{fill:#fff;}.cls-2,.cls-3{stroke:#000;stroke-linecap:round;stroke-linejoin:round;}.cls-2{stroke-width:4px;}.cls-3{fill:none;stroke-width:3px;}</style></defs><title>80x80_Glucose_monitor</title><g id="Format"><rect class="cls-1" width="100" height="100"/></g><g id="Design"><rect class="cls-2" x="22" y="22" width="55" height="55"/><line class="cls-3" x1="55.5" y1="56.5" x2="51.5" y2="56.5"/><line class="cls-3" x1="55.5" y1="63.5" x2="51.5" y2="63.5"/><line class="cls-3" x1="55.47" y1="70.45" x2="51.52" y2="70.45"/><line class="cls-3" x1="57.5" y1="68.5" x2="57.5" y2="65.5"/><line class="cls-3" x1="49.5" y1="61.5" x2="49.5" y2="58.5"/><line class="cls-3" x1="49.5" y1="68.5" x2="49.5" y2="65.5"/><line class="cls-3" x1="29.5" y1="70.5" x2="29.5" y2="65.5"/><line class="cls-3" x1="29.5" y1="61.5" x2="29.5" y2="56.5"/><line class="cls-3" x1="41.5" y1="56.5" x2="37.5" y2="56.5"/><line class="cls-3" x1="41.5" y1="70.5" x2="37.5" y2="70.5"/><line class="cls-3" x1="43.5" y1="61.5" x2="43.5" y2="58.5"/><line class="cls-3" x1="43.5" y1="68.5" x2="43.5" y2="65.5"/><line class="cls-3" x1="35.5" y1="68.5" x2="35.5" y2="65.5"/><line class="cls-3" x1="35.5" y1="61.5" x2="35.5" y2="58.5"/><polyline class="cls-3" points="70.5 34.5 63.5 41.5 54.5 32.5 41.5 45.5 36.5 40.5 28.5 48.5"/></g></svg>