<svg id="Comments" xmlns="http://www.w3.org/2000/svg" viewBox="0 0 800 800"><defs><style>.cls-1{fill:#fff;}.cls-1,.cls-2,.cls-3{stroke:#000;stroke-linecap:round;stroke-linejoin:round;}.cls-1,.cls-2{stroke-width:25.55px;}.cls-2,.cls-3{fill:none;}.cls-3{stroke-width:19.17px;}</style></defs><title>Artboard 1 copy</title><polygon class="cls-1" points="390.32 512.47 390.32 557.19 288.1 589.13 288.1 544.41 351.99 525.25 351.99 474.14 390.32 512.47"/><polygon class="cls-1" points="460.6 512.47 390.32 512.47 326.44 448.58 326.44 352.75 415.88 263.31 390.32 237.76 390.32 167.49 460.6 167.49 639.47 346.37 537.26 346.37 460.6 423.03 505.31 423.03 505.31 576.35 460.6 531.63 460.6 512.47"/><line class="cls-2" x1="505.31" y1="276.09" x2="505.31" y2="276.09"/><polyline class="cls-3" points="323.24 451.78 259.36 451.78 208.25 400.67 208.25 304.84 163.53 260.12"/><polyline class="cls-3" points="419.07 266.51 431.85 279.29 457.4 279.29"/><line class="cls-2" x1="460.59" y1="512.47" x2="460.59" y2="474.14"/><line class="cls-2" x1="460.59" y1="423.03" x2="403.1" y2="423.03"/><line class="cls-2" x1="505.31" y1="576.35" x2="524.48" y2="595.52"/><polyline class="cls-1" points="562.81 423.03 511.7 371.92 454.21 371.92 454.21 333.59"/><line class="cls-2" x1="288.1" y1="589.13" x2="288.1" y2="621.07"/><line class="cls-3" x1="431.85" y1="209.01" x2="451.01" y2="228.18"/><line class="cls-2" x1="613.92" y1="320.81" x2="588.37" y2="346.37"/><line class="cls-3" x1="157.14" y1="649.82" x2="553.23" y2="649.82"/></svg>