<svg xmlns="http://www.w3.org/2000/svg" viewBox="0 0 100 100"><defs><style>.cls-1,.cls-2,.cls-3{fill:#fff;}.cls-2,.cls-3,.cls-4{stroke:#000;stroke-linecap:round;stroke-linejoin:round;}.cls-2,.cls-4{stroke-width:3px;}.cls-3{stroke-width:4px;}.cls-4{fill:none;}</style></defs><title>80x80_Do_not_disturb_off</title><g id="Format"><rect class="cls-1" width="100" height="100"/></g><g id="Design"><polygon class="cls-2" points="54.5 21.5 54.5 24.5 51.5 27.5 48.5 27.5 45.5 24.5 45.5 21.5 48.5 18.5 51.5 18.5 54.5 21.5"/><polygon class="cls-3" points="57 72 57 78 53 82 47 82 43 78 43 72 47 68 53 68 57 72"/><polygon class="cls-3" points="33 57 25 65 25 73 75 73 75 65 67 57 67 36 59 28 41 28 33 36 33 57"/><line class="cls-4" x1="80" y1="64" x2="88" y2="66"/><line class="cls-4" x1="77" y1="58" x2="85" y2="50"/><line class="cls-4" x1="33.5" y1="56.5" x2="54.5" y2="56.5"/><line class="cls-4" x1="26.5" y1="64.5" x2="47.5" y2="64.5"/></g></svg>