<svg xmlns="http://www.w3.org/2000/svg" viewBox="0 0 100 100"><defs><style>.cls-1,.cls-2,.cls-3{fill:#fff;}.cls-2,.cls-3,.cls-4{stroke:#000;stroke-linecap:round;stroke-linejoin:round;}.cls-2{stroke-width:4px;}.cls-3,.cls-4{stroke-width:3px;}.cls-4{fill:none;}</style></defs><title>80x80_Yahoo_mail</title><g id="Format"><rect class="cls-1" width="100" height="100"/></g><g id="Design"><polygon class="cls-2" points="21 79 79 79 79 45 70 36 30 36 21 45 21 79"/><rect class="cls-3" x="28.5" y="20.5" width="43" height="53"/><line class="cls-4" x1="47.5" y1="44.5" x2="53.5" y2="44.5"/><line class="cls-4" x1="50.5" y1="44.5" x2="50.5" y2="39.5"/><line class="cls-4" x1="50.5" y1="39.5" x2="56.5" y2="31.5"/><line class="cls-4" x1="50.5" y1="39.5" x2="42.5" y2="28.5"/><line class="cls-4" x1="39.5" y1="28.5" x2="46.5" y2="28.5"/><line class="cls-4" x1="52.5" y1="31.5" x2="58.5" y2="31.5"/><polygon class="cls-2" points="21 47 38 64 50 52 62 64 79 47 79 79 21 79 21 47"/><line class="cls-4" x1="37.5" y1="65.5" x2="24.5" y2="78.5"/><line class="cls-4" x1="62.5" y1="65.5" x2="75.5" y2="78.5"/></g></svg>