<svg xmlns="http://www.w3.org/2000/svg" viewBox="0 0 100 100"><defs><style>.cls-1,.cls-2,.cls-5{fill:#fff;}.cls-2,.cls-3,.cls-4,.cls-5{stroke:#000;stroke-linecap:round;stroke-linejoin:round;}.cls-2,.cls-3{stroke-width:4px;}.cls-3,.cls-4{fill:none;}.cls-4,.cls-5{stroke-width:3px;}</style></defs><title>80x80_Uber_Ride_canceled_alt</title><g id="Format"><rect class="cls-1" width="100" height="100"/></g><g id="Design"><polygon class="cls-2" points="41 38 65 38 65 42 72 49 72 62 64 70 60 86 32 86 36 70 32 62 37 42 41 38"/><line class="cls-3" x1="65" y1="42" x2="62" y2="54"/><polyline class="cls-2" points="44 54 53 18 58 15 62 18 53 54"/><line class="cls-4" x1="34.5" y1="77.5" x2="61.5" y2="77.5"/><line class="cls-4" x1="44.5" y1="77.5" x2="42.5" y2="85.5"/><line class="cls-4" x1="50.5" y1="77.5" x2="48.5" y2="85.5"/><polyline class="cls-4" points="41.5 77.5 43.5 69.5 47.5 65.5 51.5 65.5 55.5 69.5 55.5 77.5"/><line class="cls-5" x1="38.5" y1="59.5" x2="40.5" y2="59.5"/><line class="cls-5" x1="47.5" y1="59.5" x2="49.5" y2="59.5"/><line class="cls-5" x1="56.5" y1="59.5" x2="58.5" y2="59.5"/></g></svg>