<svg xmlns="http://www.w3.org/2000/svg" viewBox="0 0 100 100"><defs><style>.cls-1,.cls-2,.cls-4{fill:#fff;}.cls-2,.cls-3,.cls-4{stroke:#000;stroke-linecap:round;stroke-linejoin:round;}.cls-2{stroke-width:4px;}.cls-3{fill:none;}.cls-3,.cls-4{stroke-width:3px;}</style></defs><title>80x80_Generic_weather</title><g id="Format"><rect class="cls-1" width="100" height="100"/></g><g id="Design"><polygon class="cls-2" points="68 28 62 34 62 43 68 49 77 49 83 43 83 34 77 28 68 28 68 28"/><polygon class="cls-2" points="65 60 70 55 70 44 65 39 49 39 44 34 32 34 25 41 17 41 12 46 12 55 17 60 65 60 65 60"/><line class="cls-3" x1="72.5" y1="15.5" x2="72.5" y2="21.5"/><polyline class="cls-3" points="25.5 41.5 35.5 41.5 39.5 46.5"/><line class="cls-3" x1="43.5" y1="66.5" x2="73.5" y2="66.5"/><line class="cls-3" x1="88.5" y1="22.5" x2="84.5" y2="26.5"/><line class="cls-3" x1="55.5" y1="22.5" x2="59.5" y2="26.5"/><line class="cls-4" x1="21.5" y1="70.5" x2="21.5" y2="65.5"/><line class="cls-4" x1="32.5" y1="76.5" x2="32.5" y2="71.5"/><line class="cls-4" x1="43.5" y1="83.5" x2="43.5" y2="78.5"/></g></svg>