<svg xmlns="http://www.w3.org/2000/svg" viewBox="0 0 100 100"><defs><style>.cls-1,.cls-2,.cls-3{fill:#fff;}.cls-2,.cls-3,.cls-4{stroke:#000;stroke-linecap:round;stroke-linejoin:round;}.cls-2{stroke-width:4px;}.cls-3,.cls-4{stroke-width:3px;}.cls-4{fill:none;}</style></defs><title>80x80_Uber_Car_black</title><g id="Format"><rect class="cls-1" width="100" height="100"/></g><g id="Design"><polygon class="cls-2" points="88 59 25 59 25 45 30 45 44 38 64 38 70 44 86 48 88 56 88 59"/><polygon class="cls-3" points="71 53.5 68 56.5 68 61.5 71 64.5 76 64.5 79 61.5 79 56.5 76 53.5 71 53.5 71 53.5"/><polygon class="cls-3" points="36 53.5 33 56.5 33 61.5 36 64.5 41 64.5 44 61.5 44 56.5 41 53.5 36 53.5 36 53.5"/><line class="cls-4" x1="23" y1="39.5" x2="18.5" y2="39.5"/><line class="cls-4" x1="17.5" y1="47.5" x2="11.5" y2="47.5"/><line class="cls-4" x1="14.5" y1="55.5" x2="17.5" y2="55.5"/></g></svg>