<svg xmlns="http://www.w3.org/2000/svg" viewBox="0 0 100 100"><defs><style>.cls-1,.cls-2{fill:#fff;}.cls-2,.cls-3,.cls-4{stroke:#000;stroke-linecap:round;stroke-linejoin:round;}.cls-2,.cls-4{stroke-width:4px;}.cls-3,.cls-4{fill:none;}.cls-3{stroke-width:3px;}</style></defs><title>80x80_Emoji_U+1f60a</title><g id="Format"><rect class="cls-1" width="100" height="100"/></g><g id="Design"><polygon class="cls-2" points="27 81 19 73 19 27 27 19 73 19 81 27 81 73 73 81 27 81"/><polyline class="cls-3" points="79.5 64.5 73.5 64.5 68.5 59.5 68.5 53.5 73.5 48.5 79.5 48.5"/><polyline class="cls-3" points="20.5 48.5 26.5 48.5 31.5 53.5 31.5 59.5 26.5 64.5 20.5 64.5"/><polyline class="cls-4" points="60 63 55.03 68 45 68 40 63"/><polyline class="cls-3" points="59.5 42.5 64.5 37.5 69.5 42.5"/><polyline class="cls-3" points="30.5 42.5 35.5 37.5 40.5 42.5"/></g></svg>