<svg xmlns="http://www.w3.org/2000/svg" viewBox="0 0 100 100"><defs><style>.cls-1,.cls-2{fill:#fff;}.cls-2,.cls-3{stroke:#000;stroke-linecap:round;stroke-linejoin:round;stroke-width:2px;}.cls-3{fill:none;}</style></defs><title>25x25_Facetime_during</title><g id="Format"><rect class="cls-1" width="100" height="100"/></g><g id="Design"><polygon class="cls-2" points="38.5 51.5 38.5 58.5 41.5 61.5 52.5 61.5 55.5 58.5 55.5 51.5 52.5 48.5 41.5 48.5 38.5 51.5"/><polygon class="cls-2" points="55.5 56.5 60.5 61.5 60.5 48.5 55.5 53.5 55.5 56.5"/><polygon class="cls-2" points="48.5 51.5 45.5 51.5 43.5 53.5 43.5 56.5 45.5 58.5 48.5 58.5 50.5 56.5 50.5 53.5 48.5 51.5"/><line class="cls-3" x1="47.5" y1="43.5" x2="47.5" y2="38.5"/><line class="cls-3" x1="51.5" y1="44.5" x2="55.5" y2="40.5"/><line class="cls-3" x1="43.5" y1="44.5" x2="39.5" y2="40.5"/></g></svg>