<svg xmlns="http://www.w3.org/2000/svg" viewBox="0 0 100 100"><defs><style>.cls-1,.cls-2{fill:#fff;}.cls-2,.cls-3{stroke:#000;stroke-linecap:round;stroke-linejoin:round;stroke-width:2px;}.cls-3{fill:none;}</style></defs><title>25x25_Fitnessapp_time_for_bed</title><g id="Format"><rect class="cls-1" width="100" height="100"/></g><g id="Design"><polygon class="cls-2" points="38.5 45.5 45.5 38.5 52.5 38.5 56.5 42.5 50.5 42.5 47.5 45.5 47.5 48.5 51.5 48.5 51.5 52.5 54.5 55.5 61.5 55.5 55.5 61.5 46.5 61.5 38.5 54.5 38.5 45.5"/><line class="cls-3" x1="42.5" y1="52.5" x2="44.5" y2="50.5"/><line class="cls-3" x1="47.5" y1="46.5" x2="38.5" y2="46.5"/><line class="cls-3" x1="54.64" y1="40.85" x2="55.65" y2="41.86"/><polygon class="cls-2" points="55.5 46.5 55.5 43.5 56.5 42.5 59.5 42.5 60.5 43.5 60.5 46.5 59.5 47.5 56.5 47.5 55.5 46.5"/><line class="cls-3" x1="53.5" y1="54.5" x2="50.5" y2="57.5"/></g></svg>