<svg xmlns="http://www.w3.org/2000/svg" viewBox="0 0 100 100"><defs><style>.cls-1,.cls-2,.cls-4{fill:#fff;}.cls-2,.cls-3,.cls-4{stroke:#000;stroke-linecap:round;stroke-linejoin:round;}.cls-2{stroke-width:3px;}.cls-3{fill:none;}.cls-3,.cls-4{stroke-width:2px;}</style></defs><title>50x50_Generic_weather</title><g id="Format"><rect class="cls-1" width="100" height="100"/></g><g id="Design"><polygon class="cls-2" points="59.5 34.5 55.5 38.5 55.5 43.5 59.5 47.5 64.5 47.5 68.5 43.5 68.5 38.5 64.5 34.5 59.5 34.5 59.5 34.5"/><polygon class="cls-2" points="68.5 65.5 72.5 61.5 72.5 55.5 69.5 52.5 56.5 52.5 50.5 46.5 41.5 46.5 36.5 51.5 31.5 51.5 27.5 55.5 27.5 61.5 31.5 65.5 68.5 65.5 68.5 65.5"/><line class="cls-3" x1="62" y1="26" x2="62" y2="30"/><polyline class="cls-3" points="37 52 44 52 47 55"/><line class="cls-3" x1="73" y1="30" x2="70" y2="33"/><line class="cls-3" x1="51" y1="30" x2="54" y2="33"/><line class="cls-4" x1="34" y1="72" x2="34" y2="69"/><line class="cls-4" x1="41" y1="73" x2="41" y2="70"/><line class="cls-4" x1="48" y1="74" x2="48" y2="71"/></g></svg>