<svg xmlns="http://www.w3.org/2000/svg" viewBox="0 0 100 100"><defs><style>.cls-1,.cls-3,.cls-4{fill:#fff;}.cls-2{fill:none;}.cls-2,.cls-3,.cls-4{stroke:#000;stroke-linecap:round;stroke-linejoin:round;}.cls-2,.cls-3{stroke-width:3px;}.cls-4{stroke-width:4px;}</style></defs><title>80x80_No_events_steel</title><g id="Format"><rect class="cls-1" width="100" height="100"/></g><g id="Design"><line class="cls-2" x1="50.5" y1="30.5" x2="38.5" y2="78.5"/><polygon class="cls-3" points="41.5 84.5 35.5 84.5 32.5 81.5 32.5 75.5 35.5 72.5 41.5 72.5 44.5 75.5 44.5 81.5 41.5 84.5"/><polygon class="cls-4" points="60 49 41 49 32 40 32 21 41 12 60 12 69 21 69 40 60 49"/><line class="cls-2" x1="50.5" y1="30.5" x2="50.5" y2="18.5"/><line class="cls-2" x1="50.5" y1="30.5" x2="54.5" y2="34.5"/><line class="cls-2" x1="37.5" y1="30.5" x2="38.5" y2="30.5"/><line class="cls-2" x1="62.5" y1="30.5" x2="63.5" y2="30.5"/><line class="cls-2" x1="41.5" y1="39.5" x2="42.5" y2="38.5"/><line class="cls-2" x1="60.5" y1="39.5" x2="59.5" y2="38.5"/><line class="cls-2" x1="42.5" y1="21.5" x2="41.5" y2="20.5"/><line class="cls-2" x1="59.5" y1="21.5" x2="60.5" y2="20.5"/><line class="cls-2" x1="50.5" y1="43.5" x2="50.5" y2="42.5"/></g></svg>