<svg xmlns="http://www.w3.org/2000/svg" viewBox="0 0 100 100"><defs><style>.cls-1,.cls-3{fill:#fff;}.cls-2,.cls-4{fill:none;}.cls-2,.cls-3,.cls-4{stroke:#000;stroke-linecap:round;stroke-linejoin:round;}.cls-2,.cls-3{stroke-width:4px;}.cls-4{stroke-width:3px;}</style></defs><title>80x80_Mute-start</title><g id="Format"><rect class="cls-1" y="10" width="100" height="100"/></g><g id="Design"><polyline class="cls-2" points="75 72 75 90 67 95"/><line class="cls-2" x1="14" y1="96" x2="87" y2="96"/><polygon class="cls-3" points="52 64 65 73 65 64 52 64 52 64"/><polyline class="cls-3" points="82 52 90 44 90 36 85 31 79 31 75 35"/><polygon class="cls-3" points="41 46 49 32 71 32 82 40 82 55 75 62 65 62 47 62 41 46"/><polygon class="cls-3" points="61 49 69 42 75 48 75 72 61 58 61 49 61 49"/><polyline class="cls-2" points="65 62 65 74 65 89 55 95"/><polygon class="cls-3" points="35 61 35 44 41 38 47 44 47 61 41 67 35 61"/><polygon class="cls-3" points="34 57 40 57 40 49.5 34 46 34 20.5 37 17.5 37 13.5 33 9.5 28 9.5 24 13.5 24 17.5 27 20.5 27 50 34 57"/><line class="cls-4" x1="24.5" y1="15.5" x2="36.5" y2="15.5"/></g></svg>