<svg xmlns="http://www.w3.org/2000/svg" viewBox="0 0 100 100"><defs><style>.cls-1,.cls-2{fill:#fff;}.cls-2,.cls-3,.cls-4{stroke:#000;stroke-linecap:round;stroke-linejoin:round;}.cls-2,.cls-3{stroke-width:4px;}.cls-3,.cls-4{fill:none;}.cls-4{stroke-width:3px;}</style></defs><title>80x80_Emoji_U+1f601</title><g id="Format"><rect class="cls-1" width="100" height="100"/></g><g id="Design"><polygon class="cls-2" points="27 81 19 73 19 27 27 19 73 19 81 27 81 73 73 81 27 81"/><polygon class="cls-3" points="29 58 29 67 33 71 66 71 70 67 70 58 66 54 33 54 29 58"/><line class="cls-4" x1="39.5" y1="54.5" x2="39.5" y2="70.5"/><line class="cls-4" x1="59.5" y1="54.5" x2="59.5" y2="70.5"/><line class="cls-4" x1="49.5" y1="54.5" x2="49.5" y2="70.5"/><polyline class="cls-4" points="59.5 42.5 64.5 37.5 69.5 42.5"/><polyline class="cls-4" points="30.5 42.5 35.5 37.5 40.5 42.5"/></g></svg>