<svg xmlns="http://www.w3.org/2000/svg" viewBox="0 0 100 100"><defs><style>.cls-1,.cls-2,.cls-3{fill:#fff;}.cls-2,.cls-3,.cls-4,.cls-5{stroke:#000;stroke-linecap:round;stroke-linejoin:round;}.cls-2,.cls-4{stroke-width:4px;}.cls-3,.cls-5{stroke-width:3px;}.cls-4,.cls-5{fill:none;}</style></defs><title>80x80_Instagram</title><g id="Format"><rect class="cls-1" width="100" height="100"/></g><g id="Design"><rect class="cls-2" x="22" y="21" width="56" height="56"/><polygon class="cls-2" points="36 58 36 46 44 38 56 38 64 46 64 58 56 66 44 66 36 58"/><polygon class="cls-3" points="42.5 54.5 42.5 49.5 47.5 44.5 52.5 44.5 57.5 49.5 57.5 54.5 52.5 59.5 47.5 59.5 42.5 54.5"/><line class="cls-4" x1="22" y1="40" x2="42" y2="40"/><line class="cls-4" x1="58" y1="40" x2="78" y2="40"/><rect class="cls-5" x="64.5" y="26.5" width="8" height="8"/><line class="cls-5" x1="27.5" y1="21.5" x2="27.5" y2="39.5"/><line class="cls-5" x1="32.5" y1="21.5" x2="32.5" y2="39.5"/><line class="cls-5" x1="37.5" y1="21.5" x2="37.5" y2="39.5"/></g></svg>