<svg xmlns="http://www.w3.org/2000/svg" viewBox="0 0 100 100"><defs><style>.cls-1,.cls-2{fill:#fff;}.cls-2,.cls-3{stroke:#000;stroke-linecap:round;stroke-linejoin:round;stroke-width:4px;}.cls-3{fill:none;}</style></defs><title>80x80_Travelapp_event_ticket</title><g id="Format"><rect class="cls-1" width="100" height="100"/></g><g id="Design"><polygon class="cls-2" points="75 51 75 44 79 40 83 40 83 27 67.5 27 64 30.5 60.5 27 16 27 16 40 20 40 24 44 24 51 20 55 16 55 16 68 60.5 68 64 64.5 67.5 68 83 68 83 55 79 55 75 51"/><line class="cls-3" x1="64" y1="38" x2="64" y2="39"/><line class="cls-3" x1="64" y1="56" x2="64" y2="57"/><line class="cls-3" x1="64" y1="47" x2="64" y2="48"/></g></svg>