<svg xmlns="http://www.w3.org/2000/svg" viewBox="0 0 100 100"><defs><style>.cls-1,.cls-3{fill:#fff;}.cls-2,.cls-4{fill:none;}.cls-2,.cls-3,.cls-4{stroke:#000;stroke-linecap:round;stroke-linejoin:round;}.cls-2,.cls-3{stroke-width:3px;}.cls-4{stroke-width:2px;}</style></defs><title>50x50_Travelapp_ground_transport_and_bus</title><g id="Format"><rect class="cls-1" width="100" height="100"/></g><g id="Design"><line class="cls-2" x1="26.5" y1="65.5" x2="73.5" y2="65.5"/><polygon class="cls-3" points="67.5 33.5 27.5 33.5 27.5 59.5 73.5 59.5 73.5 43.5 67.5 33.5"/><polygon class="cls-3" points="32.5 58.5 32.5 61.5 35.5 64.5 38.5 64.5 41.5 61.5 41.5 58.5 38.5 55.5 35.5 55.5 32.5 58.5"/><polygon class="cls-3" points="58.5 58.5 58.5 61.5 61.5 64.5 64.5 64.5 67.5 61.5 67.5 58.5 64.5 55.5 61.5 55.5 58.5 58.5"/><line class="cls-2" x1="27.5" y1="47.5" x2="73.5" y2="47.5"/><line class="cls-4" x1="39" y1="34" x2="39" y2="47"/><line class="cls-4" x1="50" y1="34" x2="50" y2="47"/><line class="cls-4" x1="61" y1="34" x2="61" y2="47"/></g></svg>