<svg xmlns="http://www.w3.org/2000/svg" viewBox="0 0 100 100"><defs><style>.cls-1,.cls-2,.cls-3{fill:#fff;}.cls-2,.cls-3,.cls-4,.cls-5{stroke:#000;stroke-linecap:round;stroke-linejoin:round;}.cls-2,.cls-5{stroke-width:4px;}.cls-3,.cls-4{stroke-width:3px;}.cls-4,.cls-5{fill:none;}</style></defs><title>80x80_Fitnessapp_have_some_water</title><g id="Format"><rect class="cls-1" width="100" height="100"/></g><g id="Design"><polygon class="cls-2" points="54 47 66 47 72 53 70 55 54 55 54 47"/><polygon class="cls-2" points="41 23 41 17 45 13 51 13 55 17 55 23 51 27 45 27 41 23"/><rect class="cls-2" x="45" y="26" width="6" height="15"/><polygon class="cls-3" points="72.5 60.5 68.5 72.5 72.5 76.5 76.5 72.5 72.5 60.5"/><polyline class="cls-2" points="42 80 42 41 54 41 54 80"/><polygon class="cls-2" points="30 87 37 80 59 80 66 87 30 87"/><line class="cls-4" x1="16.5" y1="87.5" x2="78.5" y2="87.5"/><line class="cls-4" x1="38.5" y1="67.5" x2="57.5" y2="67.5"/><line class="cls-5" x1="38" y1="41" x2="58" y2="41"/><line class="cls-5" x1="41" y1="17" x2="22" y2="36"/><line class="cls-5" x1="74" y1="51" x2="67" y2="58"/></g></svg>