<svg xmlns="http://www.w3.org/2000/svg" viewBox="0 0 100 100"><defs><style>.cls-1,.cls-2,.cls-3{fill:#fff;}.cls-2,.cls-3,.cls-4{stroke:#000;stroke-linecap:round;stroke-linejoin:round;}.cls-2{stroke-width:4px;}.cls-3,.cls-4{stroke-width:3px;}.cls-4{fill:none;}</style></defs><title>80x80_Uber_Car_taxi</title><g id="Format"><rect class="cls-1" width="100" height="100"/></g><g id="Design"><polygon class="cls-2" points="83 60 29 60 29 45 37 43 42 38 63 38 71 46 83 49 83 60"/><polygon class="cls-3" points="66.5 54.5 63.5 57.5 63.5 62.5 66.5 65.5 71.5 65.5 74.5 62.5 74.5 57.5 71.5 54.5 66.5 54.5 66.5 54.5"/><polygon class="cls-3" points="38.5 54.5 35.5 57.5 35.5 62.5 38.5 65.5 43.5 65.5 46.5 62.5 46.5 57.5 43.5 54.5 38.5 54.5 38.5 54.5"/><line class="cls-4" x1="25.5" y1="39.5" x2="19" y2="39.5"/><line class="cls-4" x1="20.5" y1="47.5" x2="13.5" y2="47.5"/><line class="cls-4" x1="17.5" y1="55.5" x2="20.5" y2="55.5"/><line class="cls-4" x1="58.5" y1="37.5" x2="58.5" y2="34.5"/></g></svg>