<svg xmlns="http://www.w3.org/2000/svg" viewBox="0 0 100 100"><defs><style>.cls-1,.cls-2{fill:#fff;}.cls-2,.cls-3{stroke:#000;stroke-linecap:round;stroke-linejoin:round;stroke-width:2px;}.cls-3{fill:none;}</style></defs><title>25x25_Dinner_reservation</title><g id="Format"><rect class="cls-1" width="100" height="100"/></g><g id="Design"><polygon class="cls-2" points="55.5 60.5 55.5 50.5 57.5 50.5 60.5 47.5 60.5 44.5 57.5 41.5 55.5 41.5 53.5 39.5 46.5 39.5 44.5 41.5 42.5 41.5 39.5 44.5 39.5 47.5 42.5 50.5 44.5 50.5 44.5 60.5 55.5 60.5"/><polyline class="cls-3" points="46.5 46.5 44.5 44.5 44.5 41.5"/><polyline class="cls-3" points="53.5 46.5 55.5 44.5 55.5 41.5"/><line class="cls-3" x1="44.5" y1="56.5" x2="55.5" y2="56.5"/><line class="cls-3" x1="47.5" y1="56.5" x2="47.5" y2="53.5"/><line class="cls-3" x1="52.5" y1="56.5" x2="52.5" y2="53.5"/></g></svg>