<svg xmlns="http://www.w3.org/2000/svg" viewBox="0 0 100 100"><defs><style>.cls-1,.cls-2{fill:#fff;}.cls-2,.cls-3,.cls-4{stroke:#000;stroke-linecap:round;stroke-linejoin:round;}.cls-2,.cls-3{stroke-width:4px;}.cls-3,.cls-4{fill:none;}.cls-4{stroke-width:3px;}</style></defs><title>80x80_Fitnessapp_encourage_awesome</title><g id="Format"><rect class="cls-1" width="100" height="100"/></g><g id="Design"><polygon class="cls-2" points="74 60 84 50 74 40 74 26 60.04 26 50 16 40 26 26 26 26 40 16 50 26 60 26 74 40 74 50 84 60 74 74 74 74 60"/><line class="cls-3" x1="55" y1="34" x2="55" y2="41"/><line class="cls-3" x1="45" y1="34" x2="45" y2="41"/><polygon class="cls-2" points="35 49 42 66 57 66 64 49 35 49"/><line class="cls-4" x1="79.5" y1="21.5" x2="86.5" y2="14.5"/><line class="cls-4" x1="13.5" y1="14.5" x2="20.5" y2="21.5"/><line class="cls-4" x1="20.5" y1="79.5" x2="13.5" y2="86.5"/><line class="cls-4" x1="86.5" y1="86.5" x2="79.5" y2="79.5"/><polygon class="cls-2" points="73.06 26 68.06 34 48.06 26 73.06 26"/><polygon class="cls-2" points="34.06 26 42.13 10 58.13 10 66.06 26 34.06 26"/><line class="cls-3" x1="46.13" y1="10" x2="46.13" y2="26"/><line class="cls-3" x1="54.13" y1="10" x2="54.13" y2="26"/></g></svg>