<svg xmlns="http://www.w3.org/2000/svg" viewBox="0 0 100 100"><defs><style>.cls-1,.cls-2{fill:#fff;}.cls-2,.cls-3{stroke:#000;stroke-linecap:round;stroke-linejoin:round;}.cls-2{stroke-width:4px;}.cls-3{fill:none;stroke-width:3px;}</style></defs><title>80x80_Emoji_U+1f618</title><g id="Format"><rect class="cls-1" width="100" height="100"/></g><g id="Design"><polygon class="cls-2" points="27 81 19 73 19 27 27 19 73 19 81 27 81 73 73 81 27 81"/><polyline class="cls-3" points="63.5 45.5 58.5 40.5 63.5 35.5"/><polyline class="cls-3" points="39.5 36.5 39.5 40 39.5 43.5"/><polyline class="cls-3" points="49.5 54.5 52.5 54.5 56.5 58.5 53.5 61.5 56.5 64.5 52.5 68.5 49.5 68.5"/><polygon class="cls-2" points="64 60 74 70 84 60 84 55 79 50 74 55 69 50 64 55 64 60"/><line class="cls-3" x1="53.5" y1="61.5" x2="51.5" y2="61.5"/></g></svg>