<svg xmlns="http://www.w3.org/2000/svg" viewBox="0 0 100 100"><defs><style>.cls-1,.cls-3{fill:#fff;}.cls-2{fill:none;}.cls-2,.cls-3{stroke:#000;stroke-linecap:round;stroke-linejoin:round;stroke-width:3px;}</style></defs><title>50x50_Mute-middle</title><g id="Format"><rect class="cls-1" width="100" height="100"/></g><g id="Design"><line class="cls-2" x1="55.5" y1="53.5" x2="59.5" y2="57.5"/><polygon class="cls-3" points="71.5 41.5 75.5 37.5 75.5 31.5 71.5 27.5 65.5 27.5 63.5 29.5 71.5 41.5"/><polygon class="cls-3" points="43.5 37.5 49.5 29.5 63.5 29.5 71.5 37.5 71.5 49.5 67.5 53.5 51.5 53.5 43.5 45.5 43.5 37.5"/><polygon class="cls-3" points="61.5 37.5 67.5 43.5 67.5 57.5 57.5 47.5 57.5 41.5 61.5 37.5"/><polyline class="cls-2" points="53.5 73.5 59.5 67.5 59.5 57.5"/><polyline class="cls-2" points="67.5 57.5 67.5 67.5 61.5 73.5"/><line class="cls-2" x1="29.5" y1="73.5" x2="75.5" y2="73.5"/><polygon class="cls-3" points="37.5 45.5 37.5 37.5 45.5 37.5 51.5 43.5 51.5 51.5 43.5 51.5 37.5 45.5"/><polyline class="cls-2" points="43.5 45.5 35 54 29 46 25 50"/></g></svg>