<svg xmlns="http://www.w3.org/2000/svg" viewBox="0 0 100 100"><defs><style>.cls-1,.cls-2,.cls-3{fill:#fff;}.cls-2,.cls-3,.cls-4{stroke:#000;stroke-linecap:round;stroke-linejoin:round;}.cls-2{stroke-width:4px;}.cls-3,.cls-4{stroke-width:3px;}.cls-4{fill:none;}</style></defs><title>80x80_Uber_Car_XL</title><g id="Format"><rect class="cls-1" width="100" height="100"/></g><g id="Design"><polygon class="cls-2" points="83 59 28 59 28 39 33 34 72 34 79 41 87 43 87 55 83 59"/><polygon class="cls-3" points="38.5 52.5 34.5 56.5 34.5 61.5 38.5 65.5 43.5 65.5 47.5 61.5 47.5 56.5 43.5 52.5 38.5 52.5 38.5 52.5"/><polygon class="cls-3" points="69.5 52.5 65.5 56.5 65.5 61.5 69.5 65.5 74.5 65.5 78.5 61.5 78.5 56.5 74.5 52.5 69.5 52.5 69.5 52.5"/><line class="cls-4" x1="21.5" y1="39.5" x2="14.5" y2="39.5"/><line class="cls-4" x1="21.5" y1="47.5" x2="12.5" y2="47.5"/><line class="cls-4" x1="17.5" y1="55.5" x2="21.5" y2="55.5"/></g></svg>