<svg xmlns="http://www.w3.org/2000/svg" viewBox="0 0 100 100"><defs><style>.cls-1,.cls-2{fill:#fff;}.cls-2,.cls-3{stroke:#000;stroke-linecap:round;stroke-linejoin:round;}.cls-2{stroke-width:4px;}.cls-3{fill:none;stroke-width:3px;}</style></defs><title>80x80_Google_photos</title><g id="Format"><rect class="cls-1" width="100" height="100"/></g><g id="Design"><polygon class="cls-2" points="56 50 50 44 50 15 68 33 68 50 56 50"/><line class="cls-3" x1="67.5" y1="32.5" x2="53.5" y2="46.5"/><polygon class="cls-2" points="50 56 56 50 85 50 67 68 50 68 50 56"/><line class="cls-3" x1="67.5" y1="67.5" x2="53.5" y2="53.5"/><polygon class="cls-2" points="44 50 50 56 50 85 32 67 32 50 44 50"/><line class="cls-3" x1="32.5" y1="67.5" x2="46.5" y2="53.5"/><polygon class="cls-2" points="50 44 44 50 15 50 33 32 50 32 50 44"/><line class="cls-3" x1="32.5" y1="32.5" x2="46.5" y2="46.5"/></g></svg>