<svg xmlns="http://www.w3.org/2000/svg" viewBox="0 0 100 100"><defs><style>.cls-1,.cls-2{fill:#fff;}.cls-2,.cls-3{stroke:#000;stroke-linecap:round;stroke-linejoin:round;stroke-width:3px;}.cls-3{fill:none;}</style></defs><title>50x50_Generic_reminder</title><g id="Format"><rect class="cls-1" width="100" height="100"/></g><g id="Design"><polygon class="cls-2" points="62.5 51.5 62.5 27.5 54.5 27.5 54.5 41.5 30.5 41.5 30.5 57.5 36.5 63.5 36.5 73.5 58.5 73.5 58.5 65.5 64.5 57.5 64.5 51.5 62.5 51.5"/><line class="cls-3" x1="54.5" y1="41.5" x2="54.5" y2="51.5"/><line class="cls-3" x1="46.5" y1="55.5" x2="30.5" y2="55.5"/><polyline class="cls-3" points="54.5 59.5 46.5 59.5 46.5 51.5 64.5 51.5"/><line class="cls-3" x1="38.5" y1="41.5" x2="38.5" y2="55.5"/><line class="cls-3" x1="46.5" y1="41.5" x2="46.5" y2="55.5"/><line class="cls-3" x1="54.5" y1="37.5" x2="62.5" y2="37.5"/><line class="cls-3" x1="62.5" y1="37.5" x2="70.5" y2="45.5"/><line class="cls-3" x1="62.5" y1="37.5" x2="70.5" y2="29.5"/></g></svg>