<svg xmlns="http://www.w3.org/2000/svg" viewBox="0 0 100 100"><defs><style>.cls-1,.cls-2{fill:#fff;}.cls-2,.cls-3{stroke:#000;stroke-linecap:round;stroke-linejoin:round;}.cls-2{stroke-width:3px;}.cls-3{fill:none;stroke-width:2px;}</style></defs><title>50x50_Sunny_day</title><g id="Format"><rect class="cls-1" width="100" height="100"/></g><g id="Design"><polygon class="cls-2" points="45.5 33.5 38.5 40.5 38.5 49.5 45.5 56.5 54.5 56.5 61.5 49.5 61.5 40.5 54.5 33.5 45.5 33.5 45.5 33.5"/><line class="cls-3" x1="50" y1="26" x2="50" y2="29"/><line class="cls-3" x1="50" y1="74" x2="50" y2="61"/><line class="cls-3" x1="73" y1="67" x2="63" y2="57"/><line class="cls-3" x1="66" y1="28" x2="63" y2="31"/><line class="cls-3" x1="66" y1="40" x2="74" y2="38"/><line class="cls-3" x1="74" y1="51" x2="66.01" y2="49.02"/><line class="cls-3" x1="27" y1="67" x2="37" y2="57"/><line class="cls-3" x1="34" y1="28" x2="37" y2="31"/><line class="cls-3" x1="34" y1="40" x2="26" y2="38"/><line class="cls-3" x1="26" y1="51" x2="33.99" y2="49.02"/></g></svg>