<svg xmlns="http://www.w3.org/2000/svg" viewBox="0 0 100 100"><defs><style>.cls-1,.cls-2{fill:#fff;}.cls-2,.cls-3{stroke:#000;stroke-linecap:round;stroke-linejoin:round;stroke-width:3px;}.cls-3{fill:none;}</style></defs><title>50x50_Dismiss</title><g id="Format"><rect class="cls-1" width="100" height="100"/></g><g id="Design"><polygon class="cls-2" points="33.5 55.5 39.5 61.5 43.5 61.5 47.5 65.5 53.5 65.5 57.5 61.5 62.5 61.5 67.5 56.5 67.5 44.5 62.5 39.5 57.5 39.5 53.5 35.5 47.5 35.5 43.5 39.5 39.5 39.5 33.5 45.5 33.5 55.5"/><line class="cls-3" x1="43.5" y1="39.5" x2="48.5" y2="44.5"/><line class="cls-3" x1="43.5" y1="61.5" x2="48.5" y2="56.5"/><line class="cls-3" x1="73.5" y1="47.5" x2="56.5" y2="47.5"/><line class="cls-3" x1="71.5" y1="53.5" x2="56.5" y2="53.5"/><line class="cls-2" x1="35.5" y1="35.5" x2="31.5" y2="35.5"/><line class="cls-2" x1="41.5" y1="69.5" x2="37.5" y2="69.5"/><line class="cls-2" x1="31.5" y1="61.5" x2="27.5" y2="61.5"/></g></svg>