<svg xmlns="http://www.w3.org/2000/svg" viewBox="0 0 100 100"><defs><style>.cls-1,.cls-2,.cls-3{fill:#fff;}.cls-2,.cls-3,.cls-4{stroke:#000;stroke-linecap:round;stroke-linejoin:round;}.cls-2{stroke-width:4px;}.cls-3,.cls-4{stroke-width:3px;}.cls-4{fill:none;}</style></defs><title>80x80_Uber_Car_uberX</title><g id="Format"><rect class="cls-1" width="100" height="100"/></g><g id="Design"><polygon class="cls-2" points="81 60 30 60 30 48 39 39 61 39 69 47 81 50.5 81 60"/><polygon class="cls-3" points="65.5 54.5 62.5 57.5 62.5 62.5 65.5 65.5 70.5 65.5 73.5 62.5 73.5 57.5 70.5 54.5 65.5 54.5 65.5 54.5"/><polygon class="cls-3" points="39.5 54.5 36.5 57.5 36.5 62.5 39.5 65.5 44.5 65.5 47.5 62.5 47.5 57.5 44.5 54.5 39.5 54.5 39.5 54.5"/><line class="cls-4" x1="29.5" y1="40.5" x2="21.5" y2="40.5"/><line class="cls-4" x1="21.5" y1="48.5" x2="14.5" y2="48.5"/><line class="cls-4" x1="19.5" y1="56.5" x2="22.5" y2="56.5"/></g></svg>