<svg xmlns="http://www.w3.org/2000/svg" viewBox="0 0 100 100"><defs><style>.cls-1,.cls-2{fill:#fff;}.cls-2,.cls-3{stroke:#000;stroke-linecap:round;stroke-linejoin:round;stroke-width:3px;}.cls-3{fill:none;}</style></defs><title>50x50_Generic_failed</title><g id="Format"><rect class="cls-1" width="100" height="100"/></g><g id="Design"><polygon class="cls-2" points="72.5 46.5 29.5 46.5 29.5 34.5 36.5 34.5 42.5 28.5 57.5 28.5 63.5 34.5 72.5 34.5 72.5 46.5"/><polygon class="cls-2" points="38.5 41.5 35.5 44.5 35.5 48.5 38.5 51.5 42.5 51.5 45.5 48.5 45.5 44.5 42.5 41.5 38.5 41.5"/><polygon class="cls-2" points="59.5 41.5 56.5 44.5 56.5 48.5 59.5 51.5 63.5 51.5 66.5 48.5 66.5 44.5 63.5 41.5 59.5 41.5"/><polyline class="cls-3" points="26.5 71.5 32.5 65.5 40.5 73.5 48.5 65.5 56.5 73.5 64.5 65.5 72.5 73.5"/><polyline class="cls-3" points="40.5 71.5 40.5 56.5 26.5 56.5"/></g></svg>