<svg xmlns="http://www.w3.org/2000/svg" viewBox="0 0 100 100"><defs><style>.cls-1,.cls-2,.cls-4{fill:#fff;}.cls-2,.cls-3,.cls-4{stroke:#000;stroke-linecap:round;stroke-linejoin:round;}.cls-2{stroke-width:4px;}.cls-3{fill:none;}.cls-3,.cls-4{stroke-width:3px;}</style></defs><title>80x80_Eventbrite_religion_and_spirituality</title><g id="Format"><rect class="cls-1" width="100" height="100"/></g><g id="Design"><rect class="cls-2" x="39" y="61" width="20" height="23"/><line class="cls-3" x1="49.5" y1="55.5" x2="49.5" y2="60.5"/><polygon class="cls-4" points="46.5 55.5 43.5 52.5 43.5 48.5 46.5 45.5 46.5 37.5 54.5 45.5 54.5 51.5 50.5 55.5 46.5 55.5"/><line class="cls-3" x1="48.5" y1="30.5" x2="48.5" y2="13.5"/><line class="cls-3" x1="63.5" y1="45.5" x2="76.5" y2="45.5"/><line class="cls-3" x1="60.5" y1="38.5" x2="72.5" y2="32.5"/><line class="cls-3" x1="55.5" y1="33.5" x2="63.5" y2="21.5"/><line class="cls-3" x1="33.5" y1="45.5" x2="20.5" y2="45.5"/><line class="cls-3" x1="36.5" y1="38.5" x2="24.5" y2="32.5"/><line class="cls-3" x1="41.5" y1="33.5" x2="33.5" y2="21.5"/><line class="cls-3" x1="24.5" y1="84.5" x2="37.5" y2="84.5"/><line class="cls-3" x1="60.5" y1="84.5" x2="73.5" y2="84.5"/></g></svg>