<svg xmlns="http://www.w3.org/2000/svg" viewBox="0 0 100 100"><defs><style>.cls-1,.cls-2{fill:#fff;}.cls-2,.cls-3{stroke:#000;stroke-linecap:round;stroke-linejoin:round;stroke-width:2px;}.cls-3{fill:none;}</style></defs><title>25x25_Uber_Car_taxi</title><g id="Format"><rect class="cls-1" width="100" height="100"/></g><g id="Design"><polygon class="cls-2" points="61.5 54.5 38.5 54.5 38.5 47.5 40.5 47.5 44.5 44.5 52.5 44.5 55.5 47.5 61.5 50.5 61.5 54.5"/><polygon class="cls-2" points="52.5 53.5 52.5 55.5 54.5 57.5 56.5 57.5 58.5 55.5 58.5 53.5 56.5 51.5 54.5 51.5 52.5 53.5"/><polygon class="cls-2" points="41.5 53.5 41.5 55.5 43.5 57.5 45.5 57.5 47.5 55.5 47.5 53.5 45.5 51.5 43.5 51.5 41.5 53.5"/><line class="cls-3" x1="50.5" y1="44.5" x2="50.5" y2="42.5"/></g></svg>