<svg xmlns="http://www.w3.org/2000/svg" viewBox="0 0 100 100"><defs><style>.cls-1,.cls-2{fill:#fff;}.cls-2,.cls-3{stroke:#000;stroke-linecap:round;stroke-linejoin:round;stroke-width:2px;}.cls-3{fill:none;}</style></defs><title>25x25_Outgoing_call</title><g id="Format"><rect class="cls-1" width="100" height="100"/></g><g id="Design"><polygon class="cls-2" points="51.5 61.5 38.5 61.5 38.5 40.5 51.5 40.5 51.5 61.5 51.5 61.5"/><line class="cls-3" x1="42.5" y1="40.5" x2="42.5" y2="38.5"/><polygon class="cls-3" points="48.5 49.5 41.5 49.5 41.5 43.5 48.5 43.5 48.5 49.5 48.5 49.5"/><line class="cls-3" x1="48.5" y1="52.5" x2="46.5" y2="52.5"/><line class="cls-3" x1="48.5" y1="55.5" x2="46.5" y2="55.5"/><line class="cls-3" x1="48.5" y1="58.5" x2="46.5" y2="58.5"/><line class="cls-3" x1="43.5" y1="52.5" x2="41.5" y2="52.5"/><line class="cls-3" x1="43.5" y1="55.5" x2="41.5" y2="55.5"/><line class="cls-3" x1="43.5" y1="58.5" x2="41.5" y2="58.5"/><line class="cls-3" x1="60.5" y1="42.5" x2="54.5" y2="48.5"/><polyline class="cls-3" points="60.5 46.5 60.5 42.5 56.5 42.5"/></g></svg>