<svg xmlns="http://www.w3.org/2000/svg" viewBox="0 0 100 100"><defs><style>.cls-1,.cls-2,.cls-5{fill:#fff;}.cls-2,.cls-3,.cls-4,.cls-5{stroke:#000;stroke-linecap:round;stroke-linejoin:round;}.cls-2,.cls-4{stroke-width:4px;}.cls-3,.cls-4{fill:none;}.cls-3,.cls-5{stroke-width:3px;}</style></defs><title>80x80_Fitnessapp_encourage_keep_it_up</title><g id="Format"><rect class="cls-1" width="100" height="100"/></g><g id="Design"><polygon class="cls-2" points="74 61 84 51 74 41 74 27 60.04 27 50 17 40 27 26 27 26 41 16 51 26 61 26 75 40 75 50 85 60 75 74 75 74 61"/><polygon class="cls-2" points="60 52 65 57 65 61.92 62 65 57 65 52 60 60 52"/><line class="cls-3" x1="45.5" y1="65.5" x2="64.5" y2="46.5"/><line class="cls-4" x1="55" y1="35" x2="55" y2="44"/><line class="cls-4" x1="45" y1="35" x2="45" y2="44"/><polygon class="cls-5" points="77.5 22.5 88.5 17.5 88.5 11.5 82.5 11.5 77.5 22.5"/><polygon class="cls-5" points="17.5 34.5 6.5 29.5 6.5 23.5 12.5 23.5 17.5 34.5"/><polygon class="cls-2" points="72.5 27 67.5 35 47.5 27 72.5 27"/><polygon class="cls-2" points="33.5 27 41.56 11 57.56 11 65.5 27 33.5 27"/><line class="cls-4" x1="45.56" y1="11" x2="45.56" y2="27"/><line class="cls-4" x1="53.56" y1="11" x2="53.56" y2="27"/></g></svg>