<svg xmlns="http://www.w3.org/2000/svg" viewBox="0 0 100 100"><defs><style>.cls-1,.cls-2{fill:#fff;}.cls-2,.cls-3{stroke:#000;stroke-linecap:round;stroke-linejoin:round;stroke-width:2px;}.cls-3{fill:none;}</style></defs><title>25x25_Cloudy_day</title><g id="Format"><rect class="cls-1" width="100" height="100"/></g><g id="Design"><polygon class="cls-2" points="59.5 61.5 61.5 59.5 61.5 56.5 58.5 53.5 54.5 53.5 51.5 50.5 47.5 50.5 43.47 54.5 43.47 54.5 40.5 54.5 38.5 56.5 38.5 59.5 40.5 61.5 59.5 61.5 59.5 61.5"/><polygon class="cls-2" points="46.5 47.5 44.5 45.5 44.5 42.5 46.5 40.5 50.5 40.5 52.5 38.5 55.5 38.5 57.5 40.5 59.5 40.5 61.5 42.5 61.5 45.5 59.5 47.5 46.5 47.5 46.5 47.5"/><line class="cls-3" x1="57.5" y1="40.5" x2="55.5" y2="42.5"/><line class="cls-3" x1="43.5" y1="54.5" x2="45.5" y2="56.5"/></g></svg>