<svg xmlns="http://www.w3.org/2000/svg" viewBox="0 0 100 100"><defs><style>.cls-1,.cls-2{fill:#fff;}.cls-2,.cls-3{stroke:#000;stroke-linecap:round;stroke-linejoin:round;}.cls-2{stroke-width:3px;}.cls-3{fill:none;stroke-width:2px;}</style></defs><title>50x50_Cloudy_day</title><g id="Format"><rect class="cls-1" width="100" height="100"/></g><g id="Design"><polygon class="cls-2" points="68.5 69.5 72.5 65.5 72.5 59.5 69.5 56.5 56.5 56.5 50.5 50.5 41.5 50.5 36.5 55.5 31.5 55.5 27.5 59.5 27.5 65.5 31.5 69.5 68.5 69.5 68.5 69.5"/><polyline class="cls-3" points="37 56 44 56 47 59"/><polygon class="cls-2" points="40.5 44.5 37.5 41.5 37.5 37.5 40.5 34.5 48.5 34.5 52.5 30.5 61.5 30.5 65.5 34.5 69.5 34.5 72.5 37.5 72.5 41.5 69.5 44.5 40.5 44.5 40.5 44.5"/><polyline class="cls-3" points="65 35 58 35 55 38"/></g></svg>