<svg xmlns="http://www.w3.org/2000/svg" viewBox="0 0 100 100"><defs><style>.cls-1,.cls-2{fill:#fff;}.cls-2{stroke:#000;stroke-linecap:round;stroke-linejoin:round;stroke-width:3px;}</style></defs><title>50x50_Eventbrite_community_and_culture</title><g id="Format"><rect class="cls-1" width="100" height="100"/></g><g id="Design"><polygon class="cls-2" points="35.5 46.5 29.5 52.5 29.5 71.5 45.5 71.5 45.5 52.5 59.5 52.5 59.5 46.5 35.5 46.5"/><polygon class="cls-2" points="35.5 27.5 31.5 31.5 31.5 37.5 35.5 41.5 41.5 41.5 45.5 37.5 45.5 31.5 41.5 27.5 35.5 27.5"/><polygon class="cls-2" points="58.5 27.5 54.5 31.5 54.5 37.5 58.5 41.5 64.5 41.5 68.5 37.5 68.5 31.5 64.5 27.5 58.5 27.5"/><polygon class="cls-2" points="58.5 46.5 52.5 52.5 52.5 71.5 70.5 71.5 70.5 52.5 64.5 46.5 58.5 46.5"/></g></svg>