<svg xmlns="http://www.w3.org/2000/svg" viewBox="0 0 100 100"><defs><style>.cls-1,.cls-2{fill:#fff;}.cls-2,.cls-3,.cls-4{stroke:#000;stroke-linecap:round;stroke-linejoin:round;}.cls-2,.cls-3{stroke-width:3px;}.cls-3,.cls-4{fill:none;}.cls-4{stroke-width:2px;}</style></defs><title>50x50_Outgoing_call</title><g id="Format"><rect class="cls-1" width="100" height="100"/></g><g id="Design"><polygon class="cls-2" points="53.5 72.5 27.5 72.5 27.5 30.5 53.5 30.5 53.5 72.5 53.5 72.5"/><line class="cls-3" x1="35.5" y1="30.5" x2="35.5" y2="26.5"/><polygon class="cls-4" points="47 48 33 48 33 36 48 36 48 48 47 48"/><line class="cls-4" x1="47" y1="54" x2="43" y2="54"/><line class="cls-4" x1="47" y1="60" x2="43" y2="60"/><line class="cls-4" x1="47" y1="66" x2="43" y2="66"/><line class="cls-4" x1="38" y1="54" x2="34" y2="54"/><line class="cls-4" x1="38" y1="60" x2="34" y2="60"/><line class="cls-4" x1="38" y1="66" x2="34" y2="66"/><line class="cls-3" x1="72.5" y1="30.5" x2="59.5" y2="43.5"/><polyline class="cls-3" points="72.5 38.5 72.5 30.5 64.5 30.5"/></g></svg>