<svg xmlns="http://www.w3.org/2000/svg" viewBox="0 0 100 100"><defs><style>.cls-1,.cls-2{fill:#fff;}.cls-2,.cls-3,.cls-4{stroke:#000;stroke-linecap:round;stroke-linejoin:round;}.cls-2,.cls-4{stroke-width:3px;}.cls-3,.cls-4{fill:none;}.cls-3{stroke-width:2px;}</style></defs><title>50x50_Lighthouse</title><g id="Format"><rect class="cls-1" width="100" height="100"/></g><g id="Design"><polygon class="cls-2" points="56.5 66.5 56.5 48.5 60.5 44.5 60.5 38.5 54.5 38.5 54.5 32.5 48.5 26.5 42.5 32.5 42.5 38.5 36.5 38.5 36.5 44.5 40.5 48.5 40.5 66.5 56.5 66.5"/><line class="cls-3" x1="51" y1="45" x2="41" y2="55"/><line class="cls-3" x1="56" y1="49" x2="41" y2="64"/><line class="cls-3" x1="56" y1="58" x2="48" y2="66"/><line class="cls-3" x1="36.5" y1="44" x2="60.5" y2="44"/><line class="cls-3" x1="42.5" y1="39" x2="54.5" y2="39"/><line class="cls-3" x1="42.5" y1="34" x2="54.5" y2="34"/><polyline class="cls-4" points="58.5 66.5 62.5 66.5 68.5 72.5"/><polyline class="cls-4" points="42.5 66.5 34.5 66.5 28.5 72.5"/><line class="cls-4" x1="62.5" y1="30.5" x2="70.5" y2="30.5"/><line class="cls-4" x1="26.5" y1="72.5" x2="72.5" y2="72.5"/></g></svg>