<svg xmlns="http://www.w3.org/2000/svg" viewBox="0 0 100 100"><defs><style>.cls-1,.cls-2{fill:#fff;}.cls-2,.cls-3,.cls-4{stroke:#000;stroke-linecap:round;stroke-linejoin:round;}.cls-2,.cls-3{stroke-width:4px;}.cls-3,.cls-4{fill:none;}.cls-4{stroke-width:3px;}</style></defs><title>80x80_Watch_disconnected</title><g id="Format"><rect class="cls-1" width="100" height="100"/></g><g id="Design"><polyline class="cls-2" points="49 75 60 30 53 23 25 23 14 68 21 75 49 75"/><line class="cls-3" x1="34" y1="23" x2="36" y2="15"/><polyline class="cls-3" points="45 56 42 68 14 68"/><line class="cls-3" x1="53" y1="23" x2="48" y2="44"/><line class="cls-4" x1="30.5" y1="49.5" x2="34.5" y2="49.5"/><line class="cls-4" x1="40.5" y1="49.5" x2="44.5" y2="49.5"/><line class="cls-4" x1="82.5" y1="49.5" x2="86.5" y2="49.5"/><line class="cls-4" x1="51.5" y1="49.5" x2="55.5" y2="49.5"/><line class="cls-4" x1="61.5" y1="49.5" x2="65.5" y2="49.5"/><line class="cls-4" x1="42.5" y1="68.5" x2="48.5" y2="74.5"/><polygon class="cls-4" points="43.5 37.5 27.5 37.5 29.5 29.5 45.5 29.5 43.5 37.5 43.5 37.5"/><line class="cls-3" x1="69" y1="44" x2="81" y2="56"/><line class="cls-3" x1="81" y1="38" x2="69" y2="56"/></g></svg>