<svg xmlns="http://www.w3.org/2000/svg" viewBox="0 0 100 100"><defs><style>.cls-1,.cls-3{fill:#fff;}.cls-2{fill:none;}.cls-2,.cls-3{stroke:#000;stroke-linecap:round;stroke-linejoin:round;stroke-width:2px;}</style></defs><title>25x25_Travelapp_ground_transport_and_bus</title><g id="Format"><rect class="cls-1" width="100" height="100"/></g><g id="Design"><line class="cls-2" x1="38.5" y1="59.5" x2="61.5" y2="59.5"/><polygon class="cls-3" points="58.5 42.5 38.5 42.5 38.5 55.5 61.5 55.5 61.5 47.5 58.5 42.5"/><polygon class="cls-3" points="53.5 54.5 53.5 56.5 55.5 58.5 57.5 58.5 59.5 56.5 59.5 54.5 57.5 52.5 55.5 52.5 53.5 54.5"/><polygon class="cls-3" points="40.5 54.5 40.5 56.5 42.5 58.5 44.5 58.5 46.5 56.5 46.5 54.5 44.5 52.5 42.5 52.5 40.5 54.5"/><line class="cls-2" x1="38.5" y1="49.5" x2="61.5" y2="49.5"/><line class="cls-2" x1="44.5" y1="42.5" x2="44.5" y2="49.5"/><line class="cls-2" x1="50.5" y1="42.5" x2="50.5" y2="49.5"/><line class="cls-2" x1="55.5" y1="42.5" x2="55.5" y2="49.5"/></g></svg>