<svg xmlns="http://www.w3.org/2000/svg" viewBox="0 0 100 100"><defs><style>.cls-1,.cls-2{fill:#fff;}.cls-2,.cls-3{stroke:#000;stroke-linecap:round;stroke-linejoin:round;}.cls-2{stroke-width:4px;}.cls-3{fill:none;stroke-width:3px;}</style></defs><title>80x80_Cloudy_day</title><g id="Format"><rect class="cls-1" width="100" height="100"/></g><g id="Design"><polygon class="cls-2" points="75 73 80 68 80 59 75 54 49 54 44 49 32 49 25 56 25 56 17 56 12 61 12 68 17 73 75 73 75 73"/><polygon class="cls-2" points="47 43 42 38 42 33 47 28 56 28 62 22 71 22 77 28 77 28 83 28 88 33 88 38 83 43 47 43 47 43"/><polyline class="cls-3" points="25.5 56.5 35.5 56.5 40.5 61.5"/><line class="cls-3" x1="33.5" y1="81.5" x2="69.5" y2="81.5"/><polyline class="cls-3" points="76.5 28.5 66.5 28.5 61.5 33.5"/><line class="cls-3" x1="22.5" y1="35.5" x2="33.5" y2="35.5"/></g></svg>