<svg xmlns="http://www.w3.org/2000/svg" viewBox="0 0 100 100"><defs><style>.cls-1,.cls-2,.cls-3{fill:#fff;}.cls-2,.cls-3{stroke:#231f20;stroke-linecap:round;stroke-linejoin:round;}.cls-2{stroke-width:4px;}.cls-3{stroke-width:3px;}</style></defs><title>80x80_Fin</title><g id="Format"><rect class="cls-1" width="100" height="100"/></g><g id="Design"><polygon class="cls-2" points="19 53 12 64 34 64 34 42 12 42 19 53"/><polygon class="cls-2" points="81 53 88 64 66 64 66 42 88 42 81 53"/><rect class="cls-2" x="27" y="30" width="46" height="26"/><polyline class="cls-3" points="36.5 49.5 36.5 36.5 43.5 36.5"/><line class="cls-3" x1="36.5" y1="43.5" x2="42.5" y2="43.5"/><line class="cls-3" x1="48.5" y1="49.5" x2="48.5" y2="36.5"/><polyline class="cls-3" points="54.5 49.5 54.5 36.5 63.5 49.5 63.5 36.5"/><line class="cls-3" x1="26.5" y1="56.5" x2="33.5" y2="63.5"/><line class="cls-3" x1="73.5" y1="56.5" x2="66.5" y2="63.5"/></g></svg>