<svg xmlns="http://www.w3.org/2000/svg" viewBox="0 0 100 100"><defs><style>.cls-1,.cls-2{fill:#fff;}.cls-2,.cls-3{stroke:#000;stroke-linecap:round;stroke-linejoin:round;}.cls-2{stroke-width:4px;}.cls-3{fill:none;stroke-width:3px;}</style></defs><title>80x80_Partly_cloudy</title><g id="Format"><rect class="cls-1" width="100" height="100"/></g><g id="Design"><polygon class="cls-2" points="52 25 46 31 46 40 52 46 61 46 67 40 67 31 61 25 52 25 52 25"/><polygon class="cls-2" points="65 78 70 73 70 64 65 59 49 59 44 54 32 54 25 61 25 61 17 61 12 66 12 73 17 78 65 78 65 78"/><line class="cls-3" x1="73.5" y1="35.5" x2="79.5" y2="35.5"/><line class="cls-3" x1="33.5" y1="35.5" x2="39.5" y2="35.5"/><line class="cls-3" x1="56.5" y1="12.5" x2="56.5" y2="18.5"/><polyline class="cls-3" points="25.5 61.5 35.5 61.5 39.5 66.5"/><line class="cls-3" x1="34.5" y1="86.5" x2="69.5" y2="86.5"/><line class="cls-3" x1="61.5" y1="52.5" x2="87.5" y2="52.5"/><line class="cls-3" x1="72.5" y1="19.5" x2="68.5" y2="23.5"/><line class="cls-3" x1="39.5" y1="19.5" x2="43.5" y2="23.5"/></g></svg>