<svg xmlns="http://www.w3.org/2000/svg" viewBox="0 0 100 100"><defs><style>.cls-1,.cls-2{fill:#fff;}.cls-2,.cls-3,.cls-4{stroke:#000;stroke-linecap:round;stroke-linejoin:round;}.cls-2,.cls-3{stroke-width:4px;}.cls-3,.cls-4{fill:none;}.cls-4{stroke-width:3px;}</style></defs><title>80x80_Dinner_reservation</title><g id="Format"><rect class="cls-1" width="100" height="100"/></g><g id="Design"><polygon class="cls-2" points="67 78 67 47 73 47 79 41 79 33 71 25 63 25 58 20 41 20 36 25 28 25 20 33 20 41 26 47 32 47 32 78 67 78"/><polyline class="cls-3" points="41 37 36 32 36 25"/><polyline class="cls-3" points="63 25 63 32 58 37"/><line class="cls-4" x1="32.5" y1="70.5" x2="66.5" y2="70.5"/><line class="cls-4" x1="40.5" y1="70.5" x2="40.5" y2="59.5"/><line class="cls-4" x1="58.5" y1="70.5" x2="58.5" y2="59.5"/><line class="cls-4" x1="49.5" y1="70.5" x2="49.5" y2="54.5"/></g></svg>