<svg xmlns="http://www.w3.org/2000/svg" viewBox="0 0 100 100"><defs><style>.cls-1,.cls-2,.cls-3{fill:#fff;}.cls-2,.cls-3,.cls-4{stroke:#000;stroke-linecap:round;stroke-linejoin:round;}.cls-2{stroke-width:4px;}.cls-3,.cls-4{stroke-width:3px;}.cls-4{fill:none;}</style></defs><title>80x80_Viber</title><g id="Format"><rect class="cls-1" width="100" height="100"/></g><g id="Design"><polygon class="cls-2" points="32 21 22 31 22 67 28 73 28 86 37 77 68 77 78 67 78 31 68 21 32 21"/><polygon class="cls-3" points="39.5 49.5 45.5 43.5 35.5 33.5 29.5 39.5 29.5 52.5 46.5 69.5 59.5 69.5 65.5 63.5 55.5 53.5 49.5 59.5 39.5 49.5 39.5 49.5"/><line class="cls-4" x1="52.5" y1="42.5" x2="56.5" y2="46.5"/><polyline class="cls-4" points="49.5 35.5 55.5 35.5 63.5 43.5 63.5 49.5"/><polyline class="cls-4" points="46.5 28.5 58.5 28.5 70.5 40.5 70.5 52.5"/></g></svg>