<svg xmlns="http://www.w3.org/2000/svg" viewBox="0 0 100 100"><defs><style>.cls-1,.cls-2,.cls-3{fill:#fff;}.cls-2,.cls-3,.cls-4{stroke:#000;stroke-linecap:round;stroke-linejoin:round;}.cls-2,.cls-4{stroke-width:2px;}.cls-3{stroke-width:3px;}.cls-4{fill:none;}</style></defs><title>50x50_Light_snow</title><g id="Format"><rect class="cls-1" width="100" height="100"/></g><g id="Design"><line class="cls-2" x1="54" y1="62" x2="54" y2="58"/><line class="cls-2" x1="34" y1="62" x2="34" y2="58"/><line class="cls-2" x1="32" y1="60" x2="36" y2="60"/><line class="cls-2" x1="52" y1="60" x2="56" y2="60"/><line class="cls-2" x1="42" y1="69" x2="46" y2="69"/><line class="cls-2" x1="44" y1="71" x2="44" y2="67"/><polygon class="cls-3" points="68.5 50.5 72.5 46.5 72.5 40.5 68.5 36.5 56.5 36.5 52.5 32.5 39.5 32.5 34.5 37.5 30.5 37.5 26.5 41.5 26.5 46.5 30.5 50.5 68.5 50.5 68.5 50.5"/><polyline class="cls-4" points="35 38 41 38 46 41"/></g></svg>