<svg xmlns="http://www.w3.org/2000/svg" viewBox="0 0 100 100"><defs><style>.cls-1,.cls-2{fill:#fff;}.cls-2,.cls-3{stroke:#000;stroke-linecap:round;stroke-linejoin:round;stroke-width:4px;}.cls-3{fill:none;}</style></defs><title>80x80_Emoji_U+1f44d</title><g id="Format"><rect class="cls-1" width="100" height="100"/></g><g id="Design"><polygon class="cls-2" points="19 76 19 52 23 48 36 48 46 38 46 22 48 20 54 20 58 24 58 37 55 40 55 44 69 44 73 48 73 76 69 80 36 80 23 80 19 76"/><line class="cls-3" x1="36" y1="48" x2="36" y2="52"/><line class="cls-3" x1="36" y1="76" x2="36" y2="80"/><polyline class="cls-3" points="73 68 52 68 49 65 49 59 52 56 53 56"/><polyline class="cls-3" points="56 44 52 48 52 53 52 56 73 56"/><polyline class="cls-3" points="56 80 51 75 51 70 51 68"/></g></svg>