<svg xmlns="http://www.w3.org/2000/svg" viewBox="0 0 100 100"><defs><style>.cls-1,.cls-2,.cls-4{fill:#fff;}.cls-2,.cls-3,.cls-4,.cls-5{stroke:#000;stroke-linecap:round;stroke-linejoin:round;}.cls-2,.cls-3{stroke-width:4px;}.cls-3,.cls-5{fill:none;}.cls-4,.cls-5{stroke-width:3px;}</style></defs><title>80x80_Car_rental</title><g id="Format"><rect class="cls-1" width="100" height="100"/></g><g id="Design"><polyline class="cls-2" points="35 57 32 69 24 67 27 55"/><polyline class="cls-2" points="71 66 68 78 60 76 63 64"/><polygon class="cls-2" points="32 35 45 17 73 24 76 46 80 47 75 67 23 54 28 34 32 35"/><line class="cls-3" x1="84" y1="84" x2="16" y2="84"/><line class="cls-2" x1="76" y1="46" x2="32" y2="35"/><line class="cls-4" x1="71.5" y1="29.5" x2="43.5" y2="22.5"/><polyline class="cls-5" points="78 55 66 52 68 44"/><polyline class="cls-5" points="40 37 38 45 26 42"/><line class="cls-3" x1="45" y1="51" x2="57" y2="54"/><line class="cls-3" x1="32" y1="35" x2="25" y2="29"/><line class="cls-3" x1="85" y1="44" x2="76" y2="46"/></g></svg>