<svg xmlns="http://www.w3.org/2000/svg" viewBox="0 0 100 100"><defs><style>.cls-1,.cls-2{fill:#fff;}.cls-2,.cls-3,.cls-4{stroke:#000;stroke-linecap:round;stroke-linejoin:round;}.cls-2,.cls-3{stroke-width:4px;}.cls-3,.cls-4{fill:none;}.cls-4{stroke-width:3px;}</style></defs><title>80x80_Check_internet_connection</title><g id="Format"><rect class="cls-1" width="100" height="100"/></g><g id="Design"><polyline class="cls-2" points="47 76 58 31 51 24 23 24 12 69 19 76 47 76"/><line class="cls-3" x1="32" y1="24" x2="34" y2="16"/><polyline class="cls-3" points="51 24 40 69 12 69"/><line class="cls-4" x1="40.5" y1="69.5" x2="46.5" y2="75.5"/><polygon class="cls-4" points="41.5 38.5 25.5 38.5 27.5 30.5 43.5 30.5 41.5 38.5 41.5 38.5"/><line class="cls-3" x1="68" y1="19" x2="80" y2="31"/><line class="cls-3" x1="80" y1="13" x2="68" y2="31"/><line class="cls-3" x1="63" y1="61" x2="63" y2="56"/><line class="cls-3" x1="70" y1="61" x2="70" y2="51"/><line class="cls-3" x1="77" y1="61" x2="77" y2="45"/><line class="cls-3" x1="84" y1="61" x2="84" y2="39"/></g></svg>