<svg xmlns="http://www.w3.org/2000/svg" viewBox="0 0 100 100"><defs><style>.cls-1,.cls-2{fill:#fff;}.cls-2,.cls-3{stroke:#000;stroke-linecap:round;stroke-linejoin:round;}.cls-2{stroke-width:3px;}.cls-3{fill:none;stroke-width:2px;}</style></defs><title>50x50_Software_updating</title><g id="Format"><rect class="cls-1" width="100" height="100"/></g><g id="Design"><polygon class="cls-2" points="61.5 50.5 65.5 54.5 65.5 65.5 58.5 72.5 42.5 72.5 35.5 65.5 35.5 54.5 43.5 46.5 54.5 46.5 57.5 43.5 57.5 37.5 54.5 34.5 42.5 34.5 39.5 37.5 39.5 43.5 42.5 46.5 43.5 46.5 37.5 52.5 31.5 46.5 31.5 34.5 38.5 27.5 58.5 27.5 65.5 34.5 65.5 46.5 57.5 54.5 46.5 54.5 43.5 57.5 43.5 61.5 46.5 64.5 55.5 64.5 58.5 61.5 58.5 57.5 55.5 54.5 57.5 54.5 61.5 50.5 61.5 50.5"/><line class="cls-3" x1="46" y1="51" x2="49" y2="51"/><line class="cls-3" x1="52" y1="50" x2="55" y2="50"/></g></svg>