<svg xmlns="http://www.w3.org/2000/svg" viewBox="0 0 100 100"><defs><style>.cls-1,.cls-2{fill:#fff;}.cls-2,.cls-3,.cls-4{stroke:#000;stroke-linecap:round;stroke-linejoin:round;}.cls-2,.cls-3{stroke-width:4px;}.cls-3,.cls-4{fill:none;}.cls-4{stroke-width:3px;}</style></defs><title>80x80_Generic_notification</title><g id="Format"><rect class="cls-1" width="100" height="100"/></g><g id="Design"><polygon class="cls-2" points="25 47 30 67 24 77 26 85 74 73 72 65 62 59 57 39 47 33 31 37 25 47 25 47"/><line class="cls-3" x1="66" y1="75" x2="74" y2="80"/><line class="cls-3" x1="39" y1="35" x2="37" y2="27"/><line class="cls-4" x1="79.5" y1="63.5" x2="86.5" y2="63.5"/><line class="cls-4" x1="75.5" y1="57.5" x2="82.5" y2="50.5"/><line class="cls-4" x1="30.5" y1="66.5" x2="50.5" y2="61.5"/><line class="cls-4" x1="25.5" y1="76.5" x2="45.5" y2="71.5"/><polygon class="cls-2" points="37 27 43 21 37 15 31 21 37 27 37 27"/></g></svg>