<svg xmlns="http://www.w3.org/2000/svg" viewBox="0 0 100 100"><defs><style>.cls-1,.cls-2,.cls-3{fill:#fff;}.cls-2,.cls-3,.cls-4{stroke:#000;stroke-linecap:round;stroke-linejoin:round;}.cls-2,.cls-4{stroke-width:2px;}.cls-3{stroke-width:3px;}.cls-4{fill:none;}</style></defs><title>50x50_Heavy_snow</title><g id="Format"><rect class="cls-1" width="100" height="100"/></g><g id="Design"><line class="cls-2" x1="34" y1="59" x2="34" y2="55"/><line class="cls-2" x1="32" y1="57" x2="36" y2="57"/><line class="cls-2" x1="51" y1="57" x2="55" y2="57"/><line class="cls-2" x1="53" y1="59" x2="53" y2="55"/><line class="cls-2" x1="51" y1="70" x2="55" y2="70"/><line class="cls-2" x1="53" y1="72" x2="53" y2="68"/><line class="cls-2" x1="42" y1="63" x2="46" y2="63"/><line class="cls-2" x1="44" y1="65" x2="44" y2="61"/><line class="cls-2" x1="32" y1="70" x2="36" y2="70"/><line class="cls-2" x1="34" y1="72" x2="34" y2="68"/><line class="cls-2" x1="60" y1="63" x2="64" y2="63"/><line class="cls-2" x1="62" y1="65" x2="62" y2="61"/><polygon class="cls-3" points="67.5 50.5 71.5 46.5 71.5 41.5 67.5 37.5 56.5 37.5 52.5 33.5 41.5 33.5 36.5 38.5 32.5 38.5 28.5 42.5 28.5 46.5 32.5 50.5 67.5 50.5 67.5 50.5"/><polyline class="cls-4" points="37 39 43 39 46 42"/></g></svg>