<svg xmlns="http://www.w3.org/2000/svg" viewBox="0 0 100 100"><defs><style>.cls-1,.cls-2,.cls-5{fill:#fff;}.cls-2,.cls-3,.cls-4,.cls-5,.cls-6{stroke:#000;}.cls-2,.cls-3,.cls-4,.cls-5{stroke-linecap:round;stroke-linejoin:round;}.cls-2,.cls-3{stroke-width:4px;}.cls-3,.cls-4,.cls-6{fill:none;}.cls-4,.cls-5,.cls-6{stroke-width:3px;}.cls-6{stroke-miterlimit:10;}</style></defs><title>80x80_Eventbrite_auto_boat_and_air</title><g id="Format"><rect class="cls-1" width="100" height="100"/></g><g id="Design"><polygon class="cls-2" points="59 70 52 56 41 56 41 63 32 63 32 57 24 57 24 63 19 68 19 85 57 85 67 70 59 70"/><polygon class="cls-2" points="38 26 65 26 73 18 80 18 80 34 73 41 38 41 33 36 33 31 38 26"/><line class="cls-3" x1="12" y1="85" x2="88" y2="85"/><line class="cls-4" x1="73.5" y1="27.5" x2="83.5" y2="27.5"/><line class="cls-4" x1="43.5" y1="31.5" x2="45.5" y2="31.5"/><line class="cls-4" x1="50.5" y1="31.5" x2="52.5" y2="31.5"/><line class="cls-4" x1="57.5" y1="31.5" x2="59.5" y2="31.5"/><line class="cls-4" x1="34.5" y1="75.5" x2="36.5" y2="75.5"/><line class="cls-4" x1="26.5" y1="75.5" x2="28.5" y2="75.5"/><line class="cls-4" x1="42.5" y1="75.5" x2="44.5" y2="75.5"/><line class="cls-4" x1="50.5" y1="75.5" x2="52.5" y2="75.5"/><line class="cls-4" x1="64.5" y1="31.5" x2="66.5" y2="31.5"/><polyline class="cls-5" points="65.5 36.5 65.5 51.5 56.5 51.5 47.5 36.5"/><line class="cls-6" x1="41.5" y1="63.5" x2="54.5" y2="63.5"/><line class="cls-6" x1="19.5" y1="70.5" x2="59.5" y2="70.5"/><line class="cls-6" x1="24.5" y1="63.5" x2="31.5" y2="63.5"/></g></svg>