<svg xmlns="http://www.w3.org/2000/svg" viewBox="0 0 100 100"><defs><style>.cls-1,.cls-2{fill:#fff;}.cls-2,.cls-3,.cls-4{stroke:#000;stroke-linecap:round;stroke-linejoin:round;}.cls-2,.cls-3{stroke-width:3px;}.cls-3,.cls-4{fill:none;}.cls-4{stroke-width:2px;}</style></defs><title>50x50_Missed_call</title><g id="Format"><rect class="cls-1" width="100" height="100"/></g><g id="Design"><polygon class="cls-2" points="72.5 72.5 46.5 72.5 46.5 30.5 72.5 30.5 72.5 72.5 72.5 72.5"/><line class="cls-3" x1="54.5" y1="30.5" x2="54.5" y2="26.5"/><polygon class="cls-4" points="66 48 52 48 52 36 67 36 67 48 66 48"/><line class="cls-4" x1="66" y1="54" x2="62" y2="54"/><line class="cls-4" x1="66" y1="60" x2="62" y2="60"/><line class="cls-4" x1="66" y1="66" x2="62" y2="66"/><line class="cls-4" x1="57" y1="54" x2="53" y2="54"/><line class="cls-4" x1="57" y1="60" x2="53" y2="60"/><line class="cls-4" x1="57" y1="66" x2="53" y2="66"/><polyline class="cls-3" points="29.5 30.5 41.5 42.5 27.5 56.5"/><polyline class="cls-3" points="29.5 38.5 29.5 30.5 37.5 30.5"/></g></svg>